<?xml version="1.0" encoding="utf-8" standalone="no"?>
<!DOCTYPE svg PUBLIC "-//W3C//DTD SVG 1.1//EN"
  "http://www.w3.org/Graphics/SVG/1.1/DTD/svg11.dtd">
<svg xmlns:xlink="http://www.w3.org/1999/xlink" width="432pt" height="324pt" viewBox="0 0 432 324" xmlns="http://www.w3.org/2000/svg" version="1.1">
 <metadata>
  <rdf:RDF xmlns:dc="http://purl.org/dc/elements/1.1/" xmlns:cc="http://creativecommons.org/ns#" xmlns:rdf="http://www.w3.org/1999/02/22-rdf-syntax-ns#">
   <cc:Work>
    <dc:type rdf:resource="http://purl.org/dc/dcmitype/StillImage"/>
    <dc:date>2023-12-07T09:47:47.781198</dc:date>
    <dc:format>image/svg+xml</dc:format>
    <dc:creator>
     <cc:Agent>
      <dc:title>Matplotlib v3.5.1, https://matplotlib.org/</dc:title>
     </cc:Agent>
    </dc:creator>
   </cc:Work>
  </rdf:RDF>
 </metadata>
 <defs>
  <style type="text/css">*{stroke-linejoin: round; stroke-linecap: butt}</style>
 </defs>
 <g id="figure_1">
  <g id="patch_1">
   <path d="M 0 324 
L 432 324 
L 432 0 
L 0 0 
z
" style="fill: #ffffff"/>
  </g>
  <g id="axes_1">
   <g id="patch_2">
    <path d="M 54 288.36 
L 388.8 288.36 
L 388.8 38.88 
L 54 38.88 
z
" style="fill: #ffffff"/>
   </g>
   <g id="matplotlib.axis_1">
    <g id="xtick_1">
     <g id="line2d_1">
      <defs>
       <path id="mabe269bb2d" d="M 0 0 
L 0 3.5 
" style="stroke: #000000; stroke-width: 0.8"/>
      </defs>
      <g>
       <use xlink:href="#mabe269bb2d" x="69.218182" y="288.36" style="stroke: #000000; stroke-width: 0.8"/>
      </g>
     </g>
     <g id="text_1">
      <!-- 0 -->
      <g transform="translate(66.036932 302.958438)scale(0.1 -0.1)">
       <defs>
        <path id="DejaVuSans-30" d="M 2034 4250 
Q 1547 4250 1301 3770 
Q 1056 3291 1056 2328 
Q 1056 1369 1301 889 
Q 1547 409 2034 409 
Q 2525 409 2770 889 
Q 3016 1369 3016 2328 
Q 3016 3291 2770 3770 
Q 2525 4250 2034 4250 
z
M 2034 4750 
Q 2819 4750 3233 4129 
Q 3647 3509 3647 2328 
Q 3647 1150 3233 529 
Q 2819 -91 2034 -91 
Q 1250 -91 836 529 
Q 422 1150 422 2328 
Q 422 3509 836 4129 
Q 1250 4750 2034 4750 
z
" transform="scale(0.015625)"/>
       </defs>
       <use xlink:href="#DejaVuSans-30"/>
      </g>
     </g>
    </g>
    <g id="xtick_2">
     <g id="line2d_2">
      <g>
       <use xlink:href="#mabe269bb2d" x="130.212899" y="288.36" style="stroke: #000000; stroke-width: 0.8"/>
      </g>
     </g>
     <g id="text_2">
      <!-- 100 -->
      <g transform="translate(120.669149 302.958438)scale(0.1 -0.1)">
       <defs>
        <path id="DejaVuSans-31" d="M 794 531 
L 1825 531 
L 1825 4091 
L 703 3866 
L 703 4441 
L 1819 4666 
L 2450 4666 
L 2450 531 
L 3481 531 
L 3481 0 
L 794 0 
L 794 531 
z
" transform="scale(0.015625)"/>
       </defs>
       <use xlink:href="#DejaVuSans-31"/>
       <use xlink:href="#DejaVuSans-30" x="63.623047"/>
       <use xlink:href="#DejaVuSans-30" x="127.246094"/>
      </g>
     </g>
    </g>
    <g id="xtick_3">
     <g id="line2d_3">
      <g>
       <use xlink:href="#mabe269bb2d" x="191.207615" y="288.36" style="stroke: #000000; stroke-width: 0.8"/>
      </g>
     </g>
     <g id="text_3">
      <!-- 200 -->
      <g transform="translate(181.663865 302.958438)scale(0.1 -0.1)">
       <defs>
        <path id="DejaVuSans-32" d="M 1228 531 
L 3431 531 
L 3431 0 
L 469 0 
L 469 531 
Q 828 903 1448 1529 
Q 2069 2156 2228 2338 
Q 2531 2678 2651 2914 
Q 2772 3150 2772 3378 
Q 2772 3750 2511 3984 
Q 2250 4219 1831 4219 
Q 1534 4219 1204 4116 
Q 875 4013 500 3803 
L 500 4441 
Q 881 4594 1212 4672 
Q 1544 4750 1819 4750 
Q 2544 4750 2975 4387 
Q 3406 4025 3406 3419 
Q 3406 3131 3298 2873 
Q 3191 2616 2906 2266 
Q 2828 2175 2409 1742 
Q 1991 1309 1228 531 
z
" transform="scale(0.015625)"/>
       </defs>
       <use xlink:href="#DejaVuSans-32"/>
       <use xlink:href="#DejaVuSans-30" x="63.623047"/>
       <use xlink:href="#DejaVuSans-30" x="127.246094"/>
      </g>
     </g>
    </g>
    <g id="xtick_4">
     <g id="line2d_4">
      <g>
       <use xlink:href="#mabe269bb2d" x="252.202332" y="288.36" style="stroke: #000000; stroke-width: 0.8"/>
      </g>
     </g>
     <g id="text_4">
      <!-- 300 -->
      <g transform="translate(242.658582 302.958438)scale(0.1 -0.1)">
       <defs>
        <path id="DejaVuSans-33" d="M 2597 2516 
Q 3050 2419 3304 2112 
Q 3559 1806 3559 1356 
Q 3559 666 3084 287 
Q 2609 -91 1734 -91 
Q 1441 -91 1130 -33 
Q 819 25 488 141 
L 488 750 
Q 750 597 1062 519 
Q 1375 441 1716 441 
Q 2309 441 2620 675 
Q 2931 909 2931 1356 
Q 2931 1769 2642 2001 
Q 2353 2234 1838 2234 
L 1294 2234 
L 1294 2753 
L 1863 2753 
Q 2328 2753 2575 2939 
Q 2822 3125 2822 3475 
Q 2822 3834 2567 4026 
Q 2313 4219 1838 4219 
Q 1578 4219 1281 4162 
Q 984 4106 628 3988 
L 628 4550 
Q 988 4650 1302 4700 
Q 1616 4750 1894 4750 
Q 2613 4750 3031 4423 
Q 3450 4097 3450 3541 
Q 3450 3153 3228 2886 
Q 3006 2619 2597 2516 
z
" transform="scale(0.015625)"/>
       </defs>
       <use xlink:href="#DejaVuSans-33"/>
       <use xlink:href="#DejaVuSans-30" x="63.623047"/>
       <use xlink:href="#DejaVuSans-30" x="127.246094"/>
      </g>
     </g>
    </g>
    <g id="xtick_5">
     <g id="line2d_5">
      <g>
       <use xlink:href="#mabe269bb2d" x="313.197049" y="288.36" style="stroke: #000000; stroke-width: 0.8"/>
      </g>
     </g>
     <g id="text_5">
      <!-- 400 -->
      <g transform="translate(303.653299 302.958438)scale(0.1 -0.1)">
       <defs>
        <path id="DejaVuSans-34" d="M 2419 4116 
L 825 1625 
L 2419 1625 
L 2419 4116 
z
M 2253 4666 
L 3047 4666 
L 3047 1625 
L 3713 1625 
L 3713 1100 
L 3047 1100 
L 3047 0 
L 2419 0 
L 2419 1100 
L 313 1100 
L 313 1709 
L 2253 4666 
z
" transform="scale(0.015625)"/>
       </defs>
       <use xlink:href="#DejaVuSans-34"/>
       <use xlink:href="#DejaVuSans-30" x="63.623047"/>
       <use xlink:href="#DejaVuSans-30" x="127.246094"/>
      </g>
     </g>
    </g>
    <g id="xtick_6">
     <g id="line2d_6">
      <g>
       <use xlink:href="#mabe269bb2d" x="374.191765" y="288.36" style="stroke: #000000; stroke-width: 0.8"/>
      </g>
     </g>
     <g id="text_6">
      <!-- 500 -->
      <g transform="translate(364.648015 302.958438)scale(0.1 -0.1)">
       <defs>
        <path id="DejaVuSans-35" d="M 691 4666 
L 3169 4666 
L 3169 4134 
L 1269 4134 
L 1269 2991 
Q 1406 3038 1543 3061 
Q 1681 3084 1819 3084 
Q 2600 3084 3056 2656 
Q 3513 2228 3513 1497 
Q 3513 744 3044 326 
Q 2575 -91 1722 -91 
Q 1428 -91 1123 -41 
Q 819 9 494 109 
L 494 744 
Q 775 591 1075 516 
Q 1375 441 1709 441 
Q 2250 441 2565 725 
Q 2881 1009 2881 1497 
Q 2881 1984 2565 2268 
Q 2250 2553 1709 2553 
Q 1456 2553 1204 2497 
Q 953 2441 691 2322 
L 691 4666 
z
" transform="scale(0.015625)"/>
       </defs>
       <use xlink:href="#DejaVuSans-35"/>
       <use xlink:href="#DejaVuSans-30" x="63.623047"/>
       <use xlink:href="#DejaVuSans-30" x="127.246094"/>
      </g>
     </g>
    </g>
    <g id="text_7">
     <!-- Groups of experiments -->
     <g transform="translate(164.253906 316.636563)scale(0.1 -0.1)">
      <defs>
       <path id="DejaVuSans-47" d="M 3809 666 
L 3809 1919 
L 2778 1919 
L 2778 2438 
L 4434 2438 
L 4434 434 
Q 4069 175 3628 42 
Q 3188 -91 2688 -91 
Q 1594 -91 976 548 
Q 359 1188 359 2328 
Q 359 3472 976 4111 
Q 1594 4750 2688 4750 
Q 3144 4750 3555 4637 
Q 3966 4525 4313 4306 
L 4313 3634 
Q 3963 3931 3569 4081 
Q 3175 4231 2741 4231 
Q 1884 4231 1454 3753 
Q 1025 3275 1025 2328 
Q 1025 1384 1454 906 
Q 1884 428 2741 428 
Q 3075 428 3337 486 
Q 3600 544 3809 666 
z
" transform="scale(0.015625)"/>
       <path id="DejaVuSans-72" d="M 2631 2963 
Q 2534 3019 2420 3045 
Q 2306 3072 2169 3072 
Q 1681 3072 1420 2755 
Q 1159 2438 1159 1844 
L 1159 0 
L 581 0 
L 581 3500 
L 1159 3500 
L 1159 2956 
Q 1341 3275 1631 3429 
Q 1922 3584 2338 3584 
Q 2397 3584 2469 3576 
Q 2541 3569 2628 3553 
L 2631 2963 
z
" transform="scale(0.015625)"/>
       <path id="DejaVuSans-6f" d="M 1959 3097 
Q 1497 3097 1228 2736 
Q 959 2375 959 1747 
Q 959 1119 1226 758 
Q 1494 397 1959 397 
Q 2419 397 2687 759 
Q 2956 1122 2956 1747 
Q 2956 2369 2687 2733 
Q 2419 3097 1959 3097 
z
M 1959 3584 
Q 2709 3584 3137 3096 
Q 3566 2609 3566 1747 
Q 3566 888 3137 398 
Q 2709 -91 1959 -91 
Q 1206 -91 779 398 
Q 353 888 353 1747 
Q 353 2609 779 3096 
Q 1206 3584 1959 3584 
z
" transform="scale(0.015625)"/>
       <path id="DejaVuSans-75" d="M 544 1381 
L 544 3500 
L 1119 3500 
L 1119 1403 
Q 1119 906 1312 657 
Q 1506 409 1894 409 
Q 2359 409 2629 706 
Q 2900 1003 2900 1516 
L 2900 3500 
L 3475 3500 
L 3475 0 
L 2900 0 
L 2900 538 
Q 2691 219 2414 64 
Q 2138 -91 1772 -91 
Q 1169 -91 856 284 
Q 544 659 544 1381 
z
M 1991 3584 
L 1991 3584 
z
" transform="scale(0.015625)"/>
       <path id="DejaVuSans-70" d="M 1159 525 
L 1159 -1331 
L 581 -1331 
L 581 3500 
L 1159 3500 
L 1159 2969 
Q 1341 3281 1617 3432 
Q 1894 3584 2278 3584 
Q 2916 3584 3314 3078 
Q 3713 2572 3713 1747 
Q 3713 922 3314 415 
Q 2916 -91 2278 -91 
Q 1894 -91 1617 61 
Q 1341 213 1159 525 
z
M 3116 1747 
Q 3116 2381 2855 2742 
Q 2594 3103 2138 3103 
Q 1681 3103 1420 2742 
Q 1159 2381 1159 1747 
Q 1159 1113 1420 752 
Q 1681 391 2138 391 
Q 2594 391 2855 752 
Q 3116 1113 3116 1747 
z
" transform="scale(0.015625)"/>
       <path id="DejaVuSans-73" d="M 2834 3397 
L 2834 2853 
Q 2591 2978 2328 3040 
Q 2066 3103 1784 3103 
Q 1356 3103 1142 2972 
Q 928 2841 928 2578 
Q 928 2378 1081 2264 
Q 1234 2150 1697 2047 
L 1894 2003 
Q 2506 1872 2764 1633 
Q 3022 1394 3022 966 
Q 3022 478 2636 193 
Q 2250 -91 1575 -91 
Q 1294 -91 989 -36 
Q 684 19 347 128 
L 347 722 
Q 666 556 975 473 
Q 1284 391 1588 391 
Q 1994 391 2212 530 
Q 2431 669 2431 922 
Q 2431 1156 2273 1281 
Q 2116 1406 1581 1522 
L 1381 1569 
Q 847 1681 609 1914 
Q 372 2147 372 2553 
Q 372 3047 722 3315 
Q 1072 3584 1716 3584 
Q 2034 3584 2315 3537 
Q 2597 3491 2834 3397 
z
" transform="scale(0.015625)"/>
       <path id="DejaVuSans-20" transform="scale(0.015625)"/>
       <path id="DejaVuSans-66" d="M 2375 4863 
L 2375 4384 
L 1825 4384 
Q 1516 4384 1395 4259 
Q 1275 4134 1275 3809 
L 1275 3500 
L 2222 3500 
L 2222 3053 
L 1275 3053 
L 1275 0 
L 697 0 
L 697 3053 
L 147 3053 
L 147 3500 
L 697 3500 
L 697 3744 
Q 697 4328 969 4595 
Q 1241 4863 1831 4863 
L 2375 4863 
z
" transform="scale(0.015625)"/>
       <path id="DejaVuSans-65" d="M 3597 1894 
L 3597 1613 
L 953 1613 
Q 991 1019 1311 708 
Q 1631 397 2203 397 
Q 2534 397 2845 478 
Q 3156 559 3463 722 
L 3463 178 
Q 3153 47 2828 -22 
Q 2503 -91 2169 -91 
Q 1331 -91 842 396 
Q 353 884 353 1716 
Q 353 2575 817 3079 
Q 1281 3584 2069 3584 
Q 2775 3584 3186 3129 
Q 3597 2675 3597 1894 
z
M 3022 2063 
Q 3016 2534 2758 2815 
Q 2500 3097 2075 3097 
Q 1594 3097 1305 2825 
Q 1016 2553 972 2059 
L 3022 2063 
z
" transform="scale(0.015625)"/>
       <path id="DejaVuSans-78" d="M 3513 3500 
L 2247 1797 
L 3578 0 
L 2900 0 
L 1881 1375 
L 863 0 
L 184 0 
L 1544 1831 
L 300 3500 
L 978 3500 
L 1906 2253 
L 2834 3500 
L 3513 3500 
z
" transform="scale(0.015625)"/>
       <path id="DejaVuSans-69" d="M 603 3500 
L 1178 3500 
L 1178 0 
L 603 0 
L 603 3500 
z
M 603 4863 
L 1178 4863 
L 1178 4134 
L 603 4134 
L 603 4863 
z
" transform="scale(0.015625)"/>
       <path id="DejaVuSans-6d" d="M 3328 2828 
Q 3544 3216 3844 3400 
Q 4144 3584 4550 3584 
Q 5097 3584 5394 3201 
Q 5691 2819 5691 2113 
L 5691 0 
L 5113 0 
L 5113 2094 
Q 5113 2597 4934 2840 
Q 4756 3084 4391 3084 
Q 3944 3084 3684 2787 
Q 3425 2491 3425 1978 
L 3425 0 
L 2847 0 
L 2847 2094 
Q 2847 2600 2669 2842 
Q 2491 3084 2119 3084 
Q 1678 3084 1418 2786 
Q 1159 2488 1159 1978 
L 1159 0 
L 581 0 
L 581 3500 
L 1159 3500 
L 1159 2956 
Q 1356 3278 1631 3431 
Q 1906 3584 2284 3584 
Q 2666 3584 2933 3390 
Q 3200 3197 3328 2828 
z
" transform="scale(0.015625)"/>
       <path id="DejaVuSans-6e" d="M 3513 2113 
L 3513 0 
L 2938 0 
L 2938 2094 
Q 2938 2591 2744 2837 
Q 2550 3084 2163 3084 
Q 1697 3084 1428 2787 
Q 1159 2491 1159 1978 
L 1159 0 
L 581 0 
L 581 3500 
L 1159 3500 
L 1159 2956 
Q 1366 3272 1645 3428 
Q 1925 3584 2291 3584 
Q 2894 3584 3203 3211 
Q 3513 2838 3513 2113 
z
" transform="scale(0.015625)"/>
       <path id="DejaVuSans-74" d="M 1172 4494 
L 1172 3500 
L 2356 3500 
L 2356 3053 
L 1172 3053 
L 1172 1153 
Q 1172 725 1289 603 
Q 1406 481 1766 481 
L 2356 481 
L 2356 0 
L 1766 0 
Q 1100 0 847 248 
Q 594 497 594 1153 
L 594 3053 
L 172 3053 
L 172 3500 
L 594 3500 
L 594 4494 
L 1172 4494 
z
" transform="scale(0.015625)"/>
      </defs>
      <use xlink:href="#DejaVuSans-47"/>
      <use xlink:href="#DejaVuSans-72" x="77.490234"/>
      <use xlink:href="#DejaVuSans-6f" x="116.353516"/>
      <use xlink:href="#DejaVuSans-75" x="177.535156"/>
      <use xlink:href="#DejaVuSans-70" x="240.914062"/>
      <use xlink:href="#DejaVuSans-73" x="304.390625"/>
      <use xlink:href="#DejaVuSans-20" x="356.490234"/>
      <use xlink:href="#DejaVuSans-6f" x="388.277344"/>
      <use xlink:href="#DejaVuSans-66" x="449.458984"/>
      <use xlink:href="#DejaVuSans-20" x="484.664062"/>
      <use xlink:href="#DejaVuSans-65" x="516.451172"/>
      <use xlink:href="#DejaVuSans-78" x="576.224609"/>
      <use xlink:href="#DejaVuSans-70" x="635.404297"/>
      <use xlink:href="#DejaVuSans-65" x="698.880859"/>
      <use xlink:href="#DejaVuSans-72" x="760.404297"/>
      <use xlink:href="#DejaVuSans-69" x="801.517578"/>
      <use xlink:href="#DejaVuSans-6d" x="829.300781"/>
      <use xlink:href="#DejaVuSans-65" x="926.712891"/>
      <use xlink:href="#DejaVuSans-6e" x="988.236328"/>
      <use xlink:href="#DejaVuSans-74" x="1051.615234"/>
      <use xlink:href="#DejaVuSans-73" x="1090.824219"/>
     </g>
    </g>
   </g>
   <g id="matplotlib.axis_2">
    <g id="ytick_1">
     <g id="line2d_7">
      <defs>
       <path id="mfa12fcd798" d="M 0 0 
L -3.5 0 
" style="stroke: #000000; stroke-width: 0.8"/>
      </defs>
      <g>
       <use xlink:href="#mfa12fcd798" x="54" y="277.02" style="stroke: #000000; stroke-width: 0.8"/>
      </g>
     </g>
     <g id="text_8">
      <!-- 0.00 -->
      <g transform="translate(24.734375 280.819219)scale(0.1 -0.1)">
       <defs>
        <path id="DejaVuSans-2e" d="M 684 794 
L 1344 794 
L 1344 0 
L 684 0 
L 684 794 
z
" transform="scale(0.015625)"/>
       </defs>
       <use xlink:href="#DejaVuSans-30"/>
       <use xlink:href="#DejaVuSans-2e" x="63.623047"/>
       <use xlink:href="#DejaVuSans-30" x="95.410156"/>
       <use xlink:href="#DejaVuSans-30" x="159.033203"/>
      </g>
     </g>
    </g>
    <g id="ytick_2">
     <g id="line2d_8">
      <g>
       <use xlink:href="#mfa12fcd798" x="54" y="239.220002" style="stroke: #000000; stroke-width: 0.8"/>
      </g>
     </g>
     <g id="text_9">
      <!-- 0.05 -->
      <g transform="translate(24.734375 243.01922)scale(0.1 -0.1)">
       <use xlink:href="#DejaVuSans-30"/>
       <use xlink:href="#DejaVuSans-2e" x="63.623047"/>
       <use xlink:href="#DejaVuSans-30" x="95.410156"/>
       <use xlink:href="#DejaVuSans-35" x="159.033203"/>
      </g>
     </g>
    </g>
    <g id="ytick_3">
     <g id="line2d_9">
      <g>
       <use xlink:href="#mfa12fcd798" x="54" y="201.420003" style="stroke: #000000; stroke-width: 0.8"/>
      </g>
     </g>
     <g id="text_10">
      <!-- 0.10 -->
      <g transform="translate(24.734375 205.219222)scale(0.1 -0.1)">
       <use xlink:href="#DejaVuSans-30"/>
       <use xlink:href="#DejaVuSans-2e" x="63.623047"/>
       <use xlink:href="#DejaVuSans-31" x="95.410156"/>
       <use xlink:href="#DejaVuSans-30" x="159.033203"/>
      </g>
     </g>
    </g>
    <g id="ytick_4">
     <g id="line2d_10">
      <g>
       <use xlink:href="#mfa12fcd798" x="54" y="163.620005" style="stroke: #000000; stroke-width: 0.8"/>
      </g>
     </g>
     <g id="text_11">
      <!-- 0.15 -->
      <g transform="translate(24.734375 167.419223)scale(0.1 -0.1)">
       <use xlink:href="#DejaVuSans-30"/>
       <use xlink:href="#DejaVuSans-2e" x="63.623047"/>
       <use xlink:href="#DejaVuSans-31" x="95.410156"/>
       <use xlink:href="#DejaVuSans-35" x="159.033203"/>
      </g>
     </g>
    </g>
    <g id="ytick_5">
     <g id="line2d_11">
      <g>
       <use xlink:href="#mfa12fcd798" x="54" y="125.820006" style="stroke: #000000; stroke-width: 0.8"/>
      </g>
     </g>
     <g id="text_12">
      <!-- 0.20 -->
      <g transform="translate(24.734375 129.619225)scale(0.1 -0.1)">
       <use xlink:href="#DejaVuSans-30"/>
       <use xlink:href="#DejaVuSans-2e" x="63.623047"/>
       <use xlink:href="#DejaVuSans-32" x="95.410156"/>
       <use xlink:href="#DejaVuSans-30" x="159.033203"/>
      </g>
     </g>
    </g>
    <g id="ytick_6">
     <g id="line2d_12">
      <g>
       <use xlink:href="#mfa12fcd798" x="54" y="88.020008" style="stroke: #000000; stroke-width: 0.8"/>
      </g>
     </g>
     <g id="text_13">
      <!-- 0.25 -->
      <g transform="translate(24.734375 91.819226)scale(0.1 -0.1)">
       <use xlink:href="#DejaVuSans-30"/>
       <use xlink:href="#DejaVuSans-2e" x="63.623047"/>
       <use xlink:href="#DejaVuSans-32" x="95.410156"/>
       <use xlink:href="#DejaVuSans-35" x="159.033203"/>
      </g>
     </g>
    </g>
    <g id="ytick_7">
     <g id="line2d_13">
      <g>
       <use xlink:href="#mfa12fcd798" x="54" y="50.220009" style="stroke: #000000; stroke-width: 0.8"/>
      </g>
     </g>
     <g id="text_14">
      <!-- 0.30 -->
      <g transform="translate(24.734375 54.019228)scale(0.1 -0.1)">
       <use xlink:href="#DejaVuSans-30"/>
       <use xlink:href="#DejaVuSans-2e" x="63.623047"/>
       <use xlink:href="#DejaVuSans-33" x="95.410156"/>
       <use xlink:href="#DejaVuSans-30" x="159.033203"/>
      </g>
     </g>
    </g>
    <g id="text_15">
     <!-- Estimated probability -->
     <g transform="translate(18.654687 217.143438)rotate(-90)scale(0.1 -0.1)">
      <defs>
       <path id="DejaVuSans-45" d="M 628 4666 
L 3578 4666 
L 3578 4134 
L 1259 4134 
L 1259 2753 
L 3481 2753 
L 3481 2222 
L 1259 2222 
L 1259 531 
L 3634 531 
L 3634 0 
L 628 0 
L 628 4666 
z
" transform="scale(0.015625)"/>
       <path id="DejaVuSans-61" d="M 2194 1759 
Q 1497 1759 1228 1600 
Q 959 1441 959 1056 
Q 959 750 1161 570 
Q 1363 391 1709 391 
Q 2188 391 2477 730 
Q 2766 1069 2766 1631 
L 2766 1759 
L 2194 1759 
z
M 3341 1997 
L 3341 0 
L 2766 0 
L 2766 531 
Q 2569 213 2275 61 
Q 1981 -91 1556 -91 
Q 1019 -91 701 211 
Q 384 513 384 1019 
Q 384 1609 779 1909 
Q 1175 2209 1959 2209 
L 2766 2209 
L 2766 2266 
Q 2766 2663 2505 2880 
Q 2244 3097 1772 3097 
Q 1472 3097 1187 3025 
Q 903 2953 641 2809 
L 641 3341 
Q 956 3463 1253 3523 
Q 1550 3584 1831 3584 
Q 2591 3584 2966 3190 
Q 3341 2797 3341 1997 
z
" transform="scale(0.015625)"/>
       <path id="DejaVuSans-64" d="M 2906 2969 
L 2906 4863 
L 3481 4863 
L 3481 0 
L 2906 0 
L 2906 525 
Q 2725 213 2448 61 
Q 2172 -91 1784 -91 
Q 1150 -91 751 415 
Q 353 922 353 1747 
Q 353 2572 751 3078 
Q 1150 3584 1784 3584 
Q 2172 3584 2448 3432 
Q 2725 3281 2906 2969 
z
M 947 1747 
Q 947 1113 1208 752 
Q 1469 391 1925 391 
Q 2381 391 2643 752 
Q 2906 1113 2906 1747 
Q 2906 2381 2643 2742 
Q 2381 3103 1925 3103 
Q 1469 3103 1208 2742 
Q 947 2381 947 1747 
z
" transform="scale(0.015625)"/>
       <path id="DejaVuSans-62" d="M 3116 1747 
Q 3116 2381 2855 2742 
Q 2594 3103 2138 3103 
Q 1681 3103 1420 2742 
Q 1159 2381 1159 1747 
Q 1159 1113 1420 752 
Q 1681 391 2138 391 
Q 2594 391 2855 752 
Q 3116 1113 3116 1747 
z
M 1159 2969 
Q 1341 3281 1617 3432 
Q 1894 3584 2278 3584 
Q 2916 3584 3314 3078 
Q 3713 2572 3713 1747 
Q 3713 922 3314 415 
Q 2916 -91 2278 -91 
Q 1894 -91 1617 61 
Q 1341 213 1159 525 
L 1159 0 
L 581 0 
L 581 4863 
L 1159 4863 
L 1159 2969 
z
" transform="scale(0.015625)"/>
       <path id="DejaVuSans-6c" d="M 603 4863 
L 1178 4863 
L 1178 0 
L 603 0 
L 603 4863 
z
" transform="scale(0.015625)"/>
       <path id="DejaVuSans-79" d="M 2059 -325 
Q 1816 -950 1584 -1140 
Q 1353 -1331 966 -1331 
L 506 -1331 
L 506 -850 
L 844 -850 
Q 1081 -850 1212 -737 
Q 1344 -625 1503 -206 
L 1606 56 
L 191 3500 
L 800 3500 
L 1894 763 
L 2988 3500 
L 3597 3500 
L 2059 -325 
z
" transform="scale(0.015625)"/>
      </defs>
      <use xlink:href="#DejaVuSans-45"/>
      <use xlink:href="#DejaVuSans-73" x="63.183594"/>
      <use xlink:href="#DejaVuSans-74" x="115.283203"/>
      <use xlink:href="#DejaVuSans-69" x="154.492188"/>
      <use xlink:href="#DejaVuSans-6d" x="182.275391"/>
      <use xlink:href="#DejaVuSans-61" x="279.6875"/>
      <use xlink:href="#DejaVuSans-74" x="340.966797"/>
      <use xlink:href="#DejaVuSans-65" x="380.175781"/>
      <use xlink:href="#DejaVuSans-64" x="441.699219"/>
      <use xlink:href="#DejaVuSans-20" x="505.175781"/>
      <use xlink:href="#DejaVuSans-70" x="536.962891"/>
      <use xlink:href="#DejaVuSans-72" x="600.439453"/>
      <use xlink:href="#DejaVuSans-6f" x="639.302734"/>
      <use xlink:href="#DejaVuSans-62" x="700.484375"/>
      <use xlink:href="#DejaVuSans-61" x="763.960938"/>
      <use xlink:href="#DejaVuSans-62" x="825.240234"/>
      <use xlink:href="#DejaVuSans-69" x="888.716797"/>
      <use xlink:href="#DejaVuSans-6c" x="916.5"/>
      <use xlink:href="#DejaVuSans-69" x="944.283203"/>
      <use xlink:href="#DejaVuSans-74" x="972.066406"/>
      <use xlink:href="#DejaVuSans-79" x="1011.275391"/>
     </g>
    </g>
   </g>
   <g id="line2d_14">
    <path d="M 69.218182 125.820004 
L 69.828129 125.820004 
L 70.438076 100.620006 
L 71.048023 125.820004 
L 71.65797 140.94 
L 72.267918 138.420003 
L 72.877865 147.420002 
L 73.487812 144.720008 
L 74.097759 142.620002 
L 75.317653 153.310919 
L 76.537548 160.712308 
L 77.147495 163.62 
L 77.757442 145.980006 
L 78.977336 134.714121 
L 79.587284 138.420003 
L 80.197231 137.756849 
L 80.807178 144.720008 
L 81.417125 143.820002 
L 82.637019 148.828702 
L 83.246967 154.170009 
L 83.856914 156.060008 
L 84.466861 151.989232 
L 85.076808 151.020001 
L 86.296702 154.495869 
L 86.90665 156.060008 
L 87.516597 159.961939 
L 88.126544 158.895005 
L 88.736491 162.474547 
L 89.346438 159.172942 
L 89.956385 158.220001 
L 90.566333 159.42 
L 91.17628 162.598386 
L 91.786227 163.62 
L 92.396174 162.650769 
L 93.006121 163.62 
L 93.616069 166.385862 
L 94.226016 163.62 
L 94.835963 164.499075 
L 96.055857 156.060008 
L 96.665804 153.759131 
L 97.885699 158.895005 
L 98.495646 156.677153 
L 99.105593 157.571999 
L 99.71554 156.949412 
L 100.325487 154.896924 
L 100.935435 155.774726 
L 101.545382 158.020008 
L 102.155329 157.434552 
L 103.375223 161.630529 
L 104.595118 162.979321 
L 105.205065 161.100003 
L 105.815012 161.760993 
L 106.424959 159.961939 
L 107.034906 160.62 
L 107.644853 160.076259 
L 108.254801 156.060008 
L 108.864748 154.456373 
L 109.474695 154.028957 
L 110.694589 155.402611 
L 111.304536 157.14001 
L 111.914484 155.63409 
L 112.524431 157.320006 
L 113.134378 156.888501 
L 113.744325 158.511895 
L 114.964219 159.641059 
L 116.184114 158.773847 
L 116.794061 155.485828 
L 117.404008 157.005007 
L 118.013955 156.620004 
L 119.23385 157.699522 
L 119.843797 157.320006 
L 120.453744 158.728245 
L 122.283585 157.60637 
L 123.50348 158.580005 
L 124.113427 158.220001 
L 124.723374 159.511305 
L 125.333321 158.336134 
L 125.943268 158.794473 
L 126.553216 157.651588 
L 127.77311 160.112792 
L 128.383057 160.534294 
L 128.993004 160.18364 
L 129.602951 159.084002 
L 130.212899 159.503172 
L 130.822846 160.655294 
L 131.432793 159.58311 
L 132.04274 159.258468 
L 132.652687 160.380005 
L 133.872582 161.147103 
L 135.092476 160.498899 
L 135.702423 158.809096 
L 136.922317 159.570009 
L 137.532265 157.933277 
L 138.142212 158.977895 
L 138.752159 158.689571 
L 139.362106 157.754485 
L 140.582 157.213223 
L 141.191948 156.314118 
L 141.801895 156.060008 
L 142.411842 156.434882 
L 143.631736 158.395615 
L 145.461578 159.42 
L 146.071525 157.369607 
L 146.681472 156.532507 
L 147.901366 153.733852 
L 148.511314 154.097867 
L 149.121261 153.310919 
L 150.341155 154.028957 
L 150.951102 153.820008 
L 151.561049 154.725883 
L 152.170997 154.514896 
L 153.390891 155.189787 
L 154.000838 154.980005 
L 154.610785 154.237027 
L 155.83068 153.839588 
L 156.440627 154.170009 
L 157.050574 153.974489 
L 157.660521 154.817267 
L 158.270468 153.591436 
L 158.880415 154.425416 
L 159.490363 154.74081 
L 160.10031 154.548005 
L 161.320204 155.164745 
L 163.150046 154.596783 
L 163.759993 154.896924 
L 164.36994 155.67478 
L 164.979887 155.964309 
L 165.589834 155.774726 
L 166.199781 156.060008 
L 168.029623 154.112027 
L 168.63957 154.400497 
L 170.469412 153.887071 
L 171.079359 153.270004 
L 172.299253 152.947062 
L 172.9092 153.23053 
L 173.519147 151.75256 
L 174.129095 151.602664 
L 174.739042 151.888971 
L 175.348989 151.74001 
L 175.958936 151.163183 
L 176.568883 151.447124 
L 177.17883 151.303154 
L 177.788778 150.738437 
L 178.398725 150.600009 
L 179.008672 151.298456 
L 179.618619 151.158463 
L 180.228566 150.606892 
L 180.838513 150.883049 
L 181.448461 150.338925 
L 182.668355 150.885246 
L 183.278302 149.947659 
L 183.888249 150.220009 
L 184.498196 150.091585 
L 185.108144 149.568696 
L 185.718091 150.232502 
L 186.328038 150.49772 
L 186.937985 151.149901 
L 187.547932 150.632318 
L 188.157879 151.277142 
L 189.377774 151.020001 
L 189.987721 151.273267 
L 191.207615 150.267762 
L 191.817562 150.146739 
L 192.42751 150.399318 
L 193.037457 150.278825 
L 194.257351 150.775342 
L 194.867298 150.289572 
L 196.087193 151.502302 
L 196.69714 151.380006 
L 197.307087 151.617162 
L 197.917034 151.495475 
L 200.356823 152.420005 
L 200.96677 152.297427 
L 201.576717 151.829175 
L 202.186664 152.400831 
L 202.796611 151.936364 
L 203.406559 152.502354 
L 204.016506 152.382165 
L 204.626453 150.906999 
L 205.2364 151.470004 
L 205.846347 151.020001 
L 206.456294 151.243009 
L 207.066242 151.131021 
L 207.676189 151.351583 
L 208.286136 151.900349 
L 208.896083 151.458266 
L 209.50603 151.674548 
L 210.725925 151.452622 
L 211.335872 151.020001 
L 211.945819 151.23447 
L 212.555766 150.806445 
L 213.165713 151.020001 
L 213.77566 150.914119 
L 214.385608 151.125444 
L 214.995555 151.020001 
L 216.215449 151.436535 
L 216.825396 151.953341 
L 217.435343 152.156071 
L 219.265185 151.836204 
L 219.875132 152.340968 
L 221.095026 152.128809 
L 221.704974 151.120409 
L 224.144762 150.723533 
L 224.754709 150.03563 
L 225.364657 150.529736 
L 225.974604 150.433959 
L 227.194498 151.407696 
L 227.804445 151.309665 
L 230.244234 152.066039 
L 231.464128 153.002025 
L 233.29397 153.54001 
L 233.903917 153.158748 
L 234.513864 153.614124 
L 235.123811 153.512309 
L 235.733758 152.859418 
L 236.343706 152.486188 
L 236.953653 152.663481 
L 237.5636 152.293654 
L 239.393441 152.010005 
L 240.003389 152.185845 
L 241.223283 153.068062 
L 242.443177 151.815792 
L 243.663072 152.161467 
L 244.273019 152.070004 
L 244.882966 151.717581 
L 245.492913 151.888971 
L 246.10286 151.279801 
L 246.712807 150.415901 
L 247.322755 150.847992 
L 247.932702 151.020001 
L 248.542649 151.447124 
L 249.152596 150.849738 
L 249.762543 151.020001 
L 250.982438 151.862813 
L 251.592385 151.272006 
L 252.812279 151.103443 
L 253.422226 150.520995 
L 254.032173 150.68843 
L 254.642121 150.606892 
L 256.471962 151.101821 
L 257.081909 150.775342 
L 258.301804 151.101032 
L 260.131645 150.137198 
L 260.741592 150.300004 
L 261.351539 149.50481 
L 262.571434 149.355849 
L 263.181381 149.519061 
L 264.401275 149.371407 
L 265.011222 148.828702 
L 265.62117 148.523413 
L 266.231117 148.453343 
L 266.841064 148.616318 
L 267.451011 149.010186 
L 268.060958 148.939271 
L 268.670905 149.329759 
L 269.280853 149.028514 
L 269.8908 149.187276 
L 270.500747 149.116676 
L 271.720641 149.43082 
L 272.330588 149.36013 
L 272.940536 149.06418 
L 274.16043 148.926237 
L 274.770377 148.634207 
L 275.380324 149.012923 
L 277.210166 149.472637 
L 277.820113 149.844492 
L 278.43006 149.994422 
L 279.040007 149.486087 
L 279.649954 149.854687 
L 280.259902 149.785428 
L 282.089743 150.228007 
L 282.69969 149.943086 
L 283.309637 150.08932 
L 283.919585 149.806404 
L 284.529532 149.738644 
L 285.139479 149.458318 
L 286.359373 149.749413 
L 286.96932 149.26023 
L 287.579268 148.984354 
L 288.189215 149.130003 
L 288.799162 149.484274 
L 289.409109 149.418901 
L 290.019056 149.145628 
L 290.629003 149.289238 
L 291.238951 149.639182 
L 291.848898 149.780663 
L 293.068792 149.239569 
L 293.678739 149.380982 
L 294.288686 149.112981 
L 294.898634 149.050189 
L 295.508581 148.581294 
L 296.118528 148.52027 
L 296.728475 148.863861 
L 297.338422 148.600805 
L 298.558317 148.881018 
L 299.168264 149.220001 
L 299.778211 149.357731 
L 300.388158 149.295794 
L 302.218 150.296241 
L 302.827947 150.03563 
L 303.437894 149.383641 
L 304.047841 148.930889 
L 304.657788 148.675821 
L 305.267735 149.006603 
L 306.48763 149.275393 
L 307.097577 149.602097 
L 307.707524 149.348572 
L 308.317471 149.288708 
L 308.927418 149.421019 
L 309.537366 149.169882 
L 310.147313 149.11092 
L 310.75726 148.480965 
L 311.367207 148.613975 
L 311.977154 148.93579 
L 312.587101 148.87801 
L 313.197049 148.631976 
L 313.806996 148.199108 
L 315.02689 148.088325 
L 315.636837 147.846674 
L 316.246784 148.164828 
L 316.856732 148.109932 
L 318.076626 147.631248 
L 318.686573 147.762444 
L 319.29652 147.709057 
L 319.906467 147.47243 
L 321.736309 147.862412 
L 322.346256 147.6277 
L 322.956203 147.756698 
L 323.56615 147.704213 
L 324.176098 147.471552 
L 325.395992 147.3687 
L 326.005939 147.138494 
L 326.615886 147.266816 
L 327.835781 147.165891 
L 329.055675 146.71181 
L 330.275569 147.319301 
L 330.885516 147.269306 
L 331.495464 146.868724 
L 332.105411 146.995008 
L 333.325305 146.549038 
L 334.545199 146.800738 
L 335.155147 146.406735 
L 335.765094 146.18713 
L 336.984988 146.781824 
L 337.594935 146.905719 
L 338.204882 147.200092 
L 338.81483 146.981174 
L 339.424777 147.103785 
L 340.644671 147.008346 
L 341.254618 147.299204 
L 341.864565 147.082505 
L 343.08446 147.32401 
L 343.694407 147.276324 
L 344.304354 147.396108 
L 344.914301 147.181595 
L 345.524248 147.301063 
L 346.134196 147.586164 
L 346.744143 147.704213 
L 347.35409 147.490905 
L 347.964037 147.443591 
L 348.573984 147.23177 
L 349.183931 147.349571 
L 350.403826 146.929095 
L 352.233667 146.792909 
L 352.843615 146.910135 
L 353.453562 146.864973 
L 355.283403 147.213194 
L 357.113245 147.077515 
L 357.723192 146.873174 
L 358.333139 146.988001 
L 358.943086 146.62589 
L 359.553033 146.740762 
L 360.162981 146.696996 
L 361.992822 147.0383 
L 362.602769 146.680583 
L 363.212716 146.637392 
L 364.432611 146.863305 
L 365.042558 147.131115 
L 366.262452 147.353615 
L 367.482347 147.265724 
L 368.092294 147.376011 
L 368.702241 147.3322 
L 369.312188 147.441913 
L 370.532082 147.965455 
L 371.14203 147.768392 
L 371.751977 147.876347 
L 372.361924 147.528441 
L 372.971871 147.636441 
L 373.581818 147.5928 
L 373.581818 147.5928 
" clip-path="url(#p3dac432d13)" style="fill: none; stroke: #1f77b4; stroke-width: 1.5; stroke-linecap: square"/>
   </g>
   <g id="line2d_15">
    <path d="M 69.218182 50.22 
L 69.828129 125.820004 
L 70.438076 100.620006 
L 71.048023 125.820004 
L 71.65797 125.820004 
L 72.267918 113.220005 
L 72.877865 115.020005 
L 73.487812 116.370002 
L 74.097759 109.020005 
L 74.707706 118.260011 
L 75.317653 105.20182 
L 75.927601 113.220005 
L 76.537548 114.189236 
L 77.757442 125.820004 
L 78.367389 130.54501 
L 78.977336 130.267062 
L 79.587284 121.620004 
L 80.197231 121.841063 
L 81.417125 136.620003 
L 82.637019 135.680873 
L 83.246967 141.570011 
L 83.856914 143.964006 
L 85.076808 142.620002 
L 85.686755 147.420002 
L 86.296702 141.46138 
L 86.90665 145.980006 
L 88.126544 144.720008 
L 88.736491 146.438188 
L 89.346438 150.278825 
L 91.17628 148.295685 
L 91.786227 143.725272 
L 92.396174 147.143079 
L 93.006121 148.500004 
L 93.616069 146.102933 
L 94.226016 145.620002 
L 94.835963 146.917683 
L 95.44591 146.438188 
L 96.665804 148.828702 
L 97.275752 148.339158 
L 97.885699 149.445003 
L 98.495646 148.96286 
L 99.105593 151.52401 
L 100.935435 154.348305 
L 102.155329 156.060008 
L 102.765276 155.520006 
L 103.375223 153.672636 
L 104.595118 155.291186 
L 105.205065 157.320006 
L 105.815012 158.042955 
L 106.424959 157.523232 
L 107.034906 159.42 
L 107.644853 158.895005 
L 108.254801 159.549236 
L 108.864748 161.329093 
L 109.474695 161.927471 
L 110.084642 161.396471 
L 110.694589 158.689571 
L 111.304536 157.14001 
L 112.524431 156.270004 
L 113.134378 156.888501 
L 113.744325 153.40379 
L 114.354272 154.044007 
L 114.964219 153.672636 
L 116.184114 154.896924 
L 117.404008 154.170009 
L 118.623902 155.322447 
L 119.23385 154.056151 
L 119.843797 155.520006 
L 121.063691 154.82931 
L 122.893533 156.39978 
L 123.50348 156.060008 
L 124.113427 156.558462 
L 124.723374 155.402611 
L 125.333321 156.710329 
L 125.943268 157.185961 
L 126.553216 156.060008 
L 127.163163 157.320006 
L 127.77311 156.215885 
L 128.383057 154.36286 
L 128.993004 153.310919 
L 130.822846 154.725883 
L 131.432793 154.445243 
L 132.04274 155.62385 
L 132.652687 153.180006 
L 133.262634 152.20868 
L 133.872582 151.96206 
L 136.31237 153.744328 
L 136.922317 153.495005 
L 137.532265 151.912042 
L 138.142212 151.683166 
L 138.752159 152.115662 
L 139.362106 151.888971 
L 139.972053 152.312309 
L 140.582 151.447124 
L 141.801895 148.500004 
L 144.241683 147.768392 
L 144.851631 146.988001 
L 146.071525 146.65465 
L 146.681472 147.673132 
L 147.291419 148.089767 
L 147.901366 149.08154 
L 148.511314 149.481074 
L 149.121261 148.729094 
L 149.731208 148.556848 
L 150.341155 148.951347 
L 150.951102 148.780002 
L 152.170997 149.548474 
L 152.780944 148.280872 
L 154.000838 149.040005 
L 154.610785 149.947659 
L 155.220732 149.24536 
L 155.83068 149.610219 
L 156.440627 149.445003 
L 157.050574 149.803453 
L 157.660521 148.603565 
L 158.270468 149.477143 
L 158.880415 149.3173 
L 159.490363 148.65222 
L 160.10031 149.004001 
L 160.710257 148.850467 
L 161.320204 148.201587 
L 161.930151 148.055296 
L 162.540098 148.892734 
L 163.759993 149.566161 
L 164.36994 149.414913 
L 164.979887 148.787088 
L 165.589834 148.642645 
L 166.199781 148.972503 
L 168.029623 148.546383 
L 168.63957 147.946834 
L 169.249517 148.729094 
L 169.859464 149.046516 
L 170.469412 148.907435 
L 171.079359 149.220001 
L 171.689306 149.976217 
L 172.299253 150.278825 
L 172.9092 150.13579 
L 174.739042 151.020001 
L 175.348989 150.012007 
L 175.958936 150.733638 
L 176.568883 150.59289 
L 177.788778 151.160783 
L 178.398725 151.860008 
L 179.008672 151.716139 
L 179.618619 151.989232 
L 180.228566 151.433122 
L 180.838513 150.472182 
L 182.058408 149.394196 
L 182.668355 149.672415 
L 183.278302 149.545534 
L 183.888249 150.220009 
L 184.498196 150.489474 
L 185.108144 149.568696 
L 185.718091 149.051259 
L 186.328038 149.322594 
L 186.937985 148.032371 
L 188.157879 147.805725 
L 188.767827 148.077871 
L 189.377774 148.729094 
L 189.987721 148.993874 
L 191.817562 148.649708 
L 192.42751 148.164828 
L 193.037457 148.055296 
L 193.647404 148.684394 
L 194.257351 148.573408 
L 195.477245 149.08154 
L 196.087193 148.970239 
L 196.69714 149.580006 
L 197.917034 149.355849 
L 198.526981 148.890424 
L 199.746876 149.379078 
L 201.576717 149.054864 
L 202.796611 149.530912 
L 203.406559 149.423621 
L 204.016506 148.976762 
L 204.626453 149.550941 
L 205.2364 148.432502 
L 205.846347 148.668003 
L 206.456294 147.897886 
L 207.066242 148.466704 
L 207.676189 148.367378 
L 208.896083 148.828702 
L 210.115977 147.326905 
L 210.725925 146.910135 
L 211.335872 146.820002 
L 212.555766 147.282712 
L 213.165713 147.830137 
L 213.77566 147.737649 
L 214.385608 147.329632 
L 214.995555 147.240005 
L 216.215449 147.687777 
L 217.435343 147.508524 
L 218.045291 147.72858 
L 218.655238 147.639517 
L 219.265185 147.857252 
L 219.875132 147.463553 
L 220.485079 147.680241 
L 221.095026 148.19761 
L 221.704974 147.807257 
L 224.144762 148.648244 
L 225.974604 148.3828 
L 227.194498 147.046163 
L 228.414392 148.03833 
L 229.02434 147.953841 
L 229.634287 147.297278 
L 231.464128 147.055964 
L 232.074075 147.258807 
L 232.684023 146.89807 
L 233.29397 146.260005 
L 234.513864 146.109715 
L 235.123811 145.758463 
L 236.953653 146.363488 
L 237.5636 146.016393 
L 238.783494 146.41355 
L 239.393441 146.340011 
L 240.003389 145.728903 
L 241.223283 145.5882 
L 241.83323 146.050989 
L 243.663072 145.839517 
L 244.882966 146.747341 
L 246.10286 147.123094 
L 246.712807 147.567948 
L 247.322755 147.493722 
L 248.542649 147.859325 
L 250.37249 147.637455 
L 250.982438 147.311641 
L 251.592385 147.492009 
L 252.812279 148.349804 
L 254.032173 148.698949 
L 254.642121 148.623944 
L 255.862015 148.967885 
L 257.691856 148.743874 
L 258.911751 149.566161 
L 259.521698 149.490289 
L 260.131645 149.896436 
L 261.351539 150.222532 
L 261.961487 150.622528 
L 263.181381 150.941009 
L 264.401275 150.784489 
L 265.011222 150.941741 
L 265.62117 150.863966 
L 266.231117 150.319999 
L 266.841064 150.244623 
L 268.060958 150.557618 
L 269.280853 150.407238 
L 270.500747 150.715478 
L 271.110694 150.640485 
L 271.720641 150.338925 
L 272.330588 150.491863 
L 272.940536 150.192544 
L 273.550483 150.120007 
L 274.16043 150.272235 
L 274.770377 149.976217 
L 275.380324 149.235931 
L 275.990271 149.167066 
L 277.210166 149.472637 
L 277.820113 149.183265 
L 279.040007 149.047834 
L 279.649954 148.762203 
L 280.259902 148.696087 
L 281.479796 148.131753 
L 282.089743 148.284003 
L 282.69969 148.650778 
L 283.309637 148.800685 
L 283.919585 149.163912 
L 285.749426 149.604271 
L 286.359373 149.537648 
L 286.96932 149.682576 
L 287.579268 149.194936 
L 288.189215 149.34001 
L 288.799162 149.065431 
L 289.409109 149.001218 
L 290.019056 149.353889 
L 291.238951 149.224936 
L 291.848898 149.574103 
L 293.068792 149.85587 
L 293.678739 149.790734 
L 294.288686 149.930277 
L 294.898634 149.865288 
L 296.118528 150.547085 
L 297.338422 150.818409 
L 298.558317 151.487905 
L 299.168264 151.020001 
L 299.778211 150.754039 
L 300.998105 151.416854 
L 302.218 150.493631 
L 302.827947 150.823129 
L 304.047841 151.085295 
L 305.267735 150.955057 
L 305.877683 151.084788 
L 306.48763 151.020001 
L 307.097577 151.14891 
L 308.317471 151.789476 
L 308.927418 151.723563 
L 309.537366 152.040759 
L 310.147313 151.974553 
L 311.367207 151.463222 
L 311.977154 150.830531 
L 313.806996 151.208064 
L 314.416943 151.145068 
L 315.02689 151.456643 
L 316.246784 151.330348 
L 316.856732 151.081926 
L 318.076626 150.958391 
L 318.686573 150.712684 
L 319.29652 150.652122 
L 319.906467 150.775342 
L 321.126362 150.654792 
L 321.736309 150.048439 
L 323.56615 150.417129 
L 324.176098 150.358425 
L 324.786045 150.660008 
L 325.395992 150.78058 
L 326.615886 150.662554 
L 327.225833 150.960566 
L 328.445728 151.197474 
L 329.055675 151.138039 
L 329.665622 151.432153 
L 330.275569 151.372458 
L 330.885516 150.961399 
L 331.495464 150.903068 
L 332.105411 151.020001 
L 333.325305 150.903879 
L 333.935252 151.020001 
L 334.545199 150.788815 
L 335.155147 151.077668 
L 336.375041 151.307018 
L 337.594935 151.191436 
L 338.204882 151.47611 
L 338.81483 151.588853 
L 339.424777 151.530814 
L 340.034724 151.303154 
L 340.644671 151.246017 
L 341.254618 151.020001 
L 341.864565 151.132508 
L 342.474513 151.076125 
L 343.08446 151.188 
L 343.694407 151.467007 
L 344.304354 151.577531 
L 344.914301 151.854443 
L 345.524248 150.964497 
L 346.134196 151.075393 
L 346.744143 150.85421 
L 347.35409 151.130288 
L 349.183931 151.458266 
L 349.793879 151.23866 
L 350.403826 151.183641 
L 351.62372 151.400182 
L 352.233667 151.670323 
L 352.843615 151.614853 
L 353.453562 151.721501 
L 354.063509 151.343078 
L 354.673456 151.288667 
L 355.283403 150.912767 
L 355.89335 150.698986 
L 356.503298 150.646276 
L 357.113245 150.913454 
L 357.723192 151.020001 
L 358.333139 150.807797 
L 358.943086 150.914119 
L 359.553033 150.86151 
L 360.162981 151.125444 
L 360.772928 151.230448 
L 361.382875 150.862501 
L 361.992822 151.124791 
L 362.602769 151.22913 
L 363.822664 151.748932 
L 364.432611 151.851345 
L 365.652505 151.744437 
L 366.262452 151.536402 
L 366.872399 151.793013 
L 367.482347 151.431432 
L 368.092294 151.379273 
L 368.702241 151.480976 
L 369.312188 151.735628 
L 369.922135 151.530127 
L 370.532082 151.630917 
L 371.14203 151.88371 
L 372.971871 151.727021 
L 373.581818 151.977606 
L 373.581818 151.977606 
" clip-path="url(#p3dac432d13)" style="fill: none; stroke: #ff7f0e; stroke-width: 1.5; stroke-linecap: square"/>
   </g>
   <g id="line2d_16">
    <path d="M 69.218182 201.420002 
L 69.828129 88.020008 
L 70.438076 151.020001 
L 71.048023 125.820004 
L 71.65797 156.060008 
L 72.267918 138.420003 
L 72.877865 136.620003 
L 73.487812 135.270006 
L 74.707706 133.380008 
L 75.317653 139.565456 
L 75.927601 132.120009 
L 76.537548 143.266156 
L 77.147495 136.620003 
L 77.757442 145.980006 
L 78.367389 139.995001 
L 78.977336 143.608237 
L 80.197231 141.73579 
L 80.807178 144.720008 
L 81.417125 151.020001 
L 82.027072 149.874548 
L 82.637019 152.115662 
L 83.246967 147.870004 
L 84.466861 151.989232 
L 85.076808 156.620004 
L 86.296702 159.709664 
L 86.90665 153.54001 
L 88.126544 156.532507 
L 88.736491 148.729094 
L 89.956385 143.100004 
L 90.566333 144.720008 
L 91.17628 144.209195 
L 91.786227 145.714743 
L 93.616069 144.259032 
L 94.226016 145.620002 
L 94.835963 145.159545 
L 95.44591 148.156368 
L 97.885699 146.295006 
L 98.495646 145.877143 
L 99.105593 142.452003 
L 99.71554 142.125884 
L 100.935435 144.363405 
L 101.545382 142.620002 
L 102.155329 145.063644 
L 102.765276 139.320008 
L 103.375223 141.73579 
L 105.205065 144.720008 
L 105.815012 140.692141 
L 106.424959 141.671623 
L 107.034906 143.820002 
L 107.644853 144.720008 
L 108.254801 146.755395 
L 108.864748 147.583641 
L 109.474695 147.258807 
L 110.084642 145.831766 
L 111.304536 145.260009 
L 111.914484 146.050989 
L 112.524431 145.77001 
L 113.134378 143.425481 
L 113.744325 143.187569 
L 114.354272 143.964006 
L 114.964219 143.725272 
L 116.184114 145.204617 
L 116.794061 146.873174 
L 118.013955 148.220005 
L 119.23385 147.680241 
L 119.843797 148.320007 
L 120.453744 147.165891 
L 121.063691 146.917683 
L 121.673638 145.806217 
L 122.283585 146.438188 
L 122.893533 145.357081 
L 123.50348 145.980006 
L 124.113427 147.420002 
L 125.943268 146.730645 
L 126.553216 147.306324 
L 128.383057 146.648578 
L 128.993004 147.201827 
L 129.602951 148.500004 
L 130.212899 146.778422 
L 130.822846 146.572943 
L 131.432793 147.839419 
L 132.04274 146.173848 
L 133.262634 145.789815 
L 133.872582 146.30973 
L 135.092476 145.933762 
L 135.702423 146.438188 
L 136.922317 146.070005 
L 137.532265 147.228852 
L 138.142212 147.704213 
L 139.362106 146.023456 
L 140.582 146.962384 
L 141.191948 148.055296 
L 141.801895 148.500004 
L 142.411842 149.56215 
L 143.021789 149.367543 
L 143.631736 149.790734 
L 144.241683 147.768392 
L 144.851631 146.988001 
L 145.461578 147.420002 
L 146.071525 148.440478 
L 146.681472 148.26376 
L 147.291419 148.675821 
L 147.901366 149.663087 
L 148.511314 148.903977 
L 149.121261 149.301821 
L 150.341155 148.951347 
L 152.780944 150.472182 
L 153.390891 151.382597 
L 154.610785 152.092343 
L 155.83068 151.724903 
L 156.440627 151.020001 
L 157.050574 150.846212 
L 157.660521 151.192608 
L 158.270468 151.020001 
L 159.490363 149.666985 
L 160.10031 147.996007 
L 161.930151 147.561178 
L 162.540098 146.438188 
L 163.150046 146.305167 
L 163.759993 146.658469 
L 164.36994 146.044207 
L 164.979887 144.959248 
L 166.809729 146.011312 
L 168.63957 145.641958 
L 169.249517 144.147281 
L 169.859464 144.947713 
L 170.469412 144.380483 
L 171.079359 144.270005 
L 171.689306 144.608166 
L 172.299253 145.38707 
L 173.519147 145.159545 
L 174.739042 145.806217 
L 175.348989 146.556 
L 175.958936 146.867733 
L 176.568883 146.748816 
L 177.17883 147.055964 
L 177.788778 146.937318 
L 178.398725 145.980006 
L 179.008672 145.868626 
L 179.618619 145.343079 
L 180.228566 145.649517 
L 181.448461 147.06973 
L 182.058408 146.955489 
L 182.668355 147.651019 
L 183.888249 146.620009 
L 184.498196 145.316842 
L 185.108144 146.00639 
L 185.718091 146.295006 
L 186.328038 145.797205 
L 186.937985 146.083917 
L 187.547932 145.980006 
L 188.157879 146.262866 
L 188.767827 145.775339 
L 189.377774 144.910909 
L 189.987721 144.814985 
L 190.597668 144.342001 
L 193.037457 145.461184 
L 193.647404 146.102933 
L 194.257351 146.004474 
L 194.867298 146.637392 
L 195.477245 146.900774 
L 196.087193 147.523349 
L 196.69714 147.060008 
L 197.307087 147.675926 
L 197.917034 147.92944 
L 198.526981 147.470707 
L 199.746876 147.269306 
L 200.356823 147.520003 
L 200.96677 147.071623 
L 202.186664 148.258364 
L 203.406559 148.055296 
L 204.016506 147.614598 
L 205.2364 147.420002 
L 205.846347 147.996007 
L 207.066242 148.466704 
L 207.676189 149.030531 
L 208.286136 149.259306 
L 208.896083 148.500004 
L 210.115977 149.607933 
L 212.555766 150.486106 
L 213.165713 150.382026 
L 213.77566 149.961178 
L 214.385608 150.492809 
L 214.995555 150.390002 
L 215.605502 149.660665 
L 216.215449 150.186945 
L 217.435343 150.606892 
L 218.045291 150.505719 
L 218.655238 150.712684 
L 219.875132 149.90226 
L 220.485079 150.109159 
L 221.095026 149.709602 
L 223.534815 151.714494 
L 225.364657 152.294712 
L 225.974604 152.192097 
L 226.584551 152.674059 
L 227.194498 152.861547 
L 227.804445 152.468277 
L 228.414392 152.366574 
L 229.634287 152.738181 
L 230.244234 152.35132 
L 230.854181 152.251589 
L 231.464128 151.869448 
L 232.074075 151.77224 
L 233.903917 153.158748 
L 234.513864 152.502354 
L 235.123811 152.68154 
L 235.733758 153.135339 
L 236.953653 152.937397 
L 237.5636 153.112425 
L 238.173547 152.470361 
L 238.783494 152.645806 
L 239.393441 152.550006 
L 240.003389 152.185845 
L 240.613336 152.092343 
L 241.223283 152.266651 
L 241.83323 152.705918 
L 242.443177 152.876846 
L 243.053124 153.310919 
L 244.273019 153.120007 
L 245.492913 151.888971 
L 246.712807 152.228225 
L 247.932702 152.048577 
L 248.542649 151.447124 
L 249.152596 151.871352 
L 249.762543 152.038191 
L 250.982438 151.357126 
L 251.592385 151.52401 
L 252.202332 151.187448 
L 252.812279 150.352455 
L 253.422226 150.271491 
L 254.032173 149.445003 
L 254.642121 149.615413 
L 255.252068 149.537648 
L 255.862015 149.214143 
L 256.471962 149.6291 
L 257.081909 149.552045 
L 257.691856 148.987745 
L 258.911751 148.354625 
L 259.521698 147.799563 
L 260.131645 148.211083 
L 260.741592 148.140011 
L 261.961487 148.953127 
L 262.571434 148.880387 
L 264.401275 149.371407 
L 265.011222 149.298261 
L 266.231117 150.086673 
L 267.451011 150.401605 
L 268.060958 149.864037 
L 269.280853 149.717882 
L 269.8908 149.416366 
L 270.500747 149.801876 
L 271.110694 149.274221 
L 272.940536 149.741201 
L 274.16043 149.599236 
L 274.770377 149.752545 
L 275.380324 149.681957 
L 275.990271 149.834128 
L 276.600219 150.207099 
L 278.43006 149.994422 
L 279.040007 150.362616 
L 279.649954 150.291679 
L 280.259902 150.003287 
L 281.479796 150.297942 
L 282.089743 150.660008 
L 283.309637 150.94841 
L 284.529532 150.806445 
L 285.749426 151.090792 
L 286.96932 150.949616 
L 287.579268 151.090195 
L 288.189215 150.600009 
L 288.799162 150.74078 
L 290.019056 151.436535 
L 290.629003 151.573847 
L 291.238951 151.503293 
L 291.848898 151.639682 
L 292.458845 151.363333 
L 293.068792 151.49935 
L 293.678739 151.020001 
L 294.288686 151.360551 
L 294.898634 151.495475 
L 295.508581 151.223227 
L 296.118528 151.155128 
L 296.728475 150.885246 
L 297.338422 150.818409 
L 297.948369 150.952984 
L 298.558317 151.287383 
L 299.168264 151.220005 
L 299.778211 151.352462 
L 300.388158 150.68843 
L 300.998105 150.623159 
L 301.608052 150.756135 
L 302.218 150.296241 
L 302.827947 150.232502 
L 303.437894 150.56182 
L 304.047841 150.693579 
L 305.267735 151.344745 
L 305.877683 151.473474 
L 307.097577 150.955553 
L 307.707524 150.891431 
L 308.317471 151.020001 
L 309.537366 150.892411 
L 311.367207 151.273267 
L 311.977154 151.588425 
L 312.587101 151.713007 
L 313.197049 151.648435 
L 314.416943 151.895437 
L 315.636837 152.513338 
L 316.246784 152.26139 
L 317.466679 152.131771 
L 318.076626 152.437117 
L 318.686573 152.556585 
L 319.29652 152.491539 
L 319.906467 152.793787 
L 320.516415 152.911531 
L 321.126362 152.846091 
L 321.736309 152.963138 
L 322.346256 152.534426 
L 322.956203 152.832956 
L 323.56615 152.949191 
L 324.176098 152.884438 
L 325.395992 153.474164 
L 326.005939 153.587775 
L 326.615886 153.164685 
L 327.835781 153.39177 
L 330.885516 153.071172 
L 331.495464 153.358752 
L 332.715358 153.580745 
L 333.325305 153.516781 
L 333.935252 153.27932 
L 334.545199 153.216336 
L 335.155147 153.499635 
L 336.375041 153.373532 
L 337.594935 152.905719 
L 339.424777 153.233516 
L 340.034724 153.171917 
L 340.644671 153.280098 
L 341.864565 153.832502 
L 342.474513 153.938485 
L 343.08446 153.708009 
L 343.694407 153.646174 
L 344.304354 153.751865 
L 344.914301 153.690199 
L 345.524248 153.795338 
L 346.134196 154.066155 
L 346.744143 154.004218 
L 347.35409 154.273402 
L 347.964037 154.376333 
L 348.573984 153.984707 
L 349.183931 153.759131 
L 349.793879 153.862524 
L 350.403826 153.801826 
L 352.233667 153.133559 
L 353.453562 153.01658 
L 354.063509 153.281539 
L 355.283403 153.164685 
L 355.89335 153.42765 
L 357.113245 153.630572 
L 357.723192 153.412408 
L 358.333139 153.354324 
L 360.162981 153.655986 
L 360.772928 153.59788 
L 361.382875 153.85501 
L 361.992822 153.482377 
L 362.602769 153.581827 
L 363.212716 153.524351 
L 363.822664 152.842318 
L 364.432611 152.7866 
L 365.042558 152.575556 
L 365.652505 152.831097 
L 367.482347 153.12858 
L 368.092294 152.918989 
L 368.702241 153.017572 
L 369.312188 152.962394 
L 369.922135 152.754415 
L 370.532082 152.852727 
L 371.14203 152.645806 
L 371.751977 152.743949 
L 372.361924 152.538076 
L 372.971871 152.18153 
L 373.581818 152.431203 
L 373.581818 152.431203 
" clip-path="url(#p3dac432d13)" style="fill: none; stroke: #2ca02c; stroke-width: 1.5; stroke-linecap: square"/>
   </g>
   <g id="line2d_17">
    <path d="M 69.218182 201.420002 
L 69.828129 201.420002 
L 70.438076 226.619999 
L 71.048023 201.420002 
L 71.65797 186.300006 
L 72.267918 188.820003 
L 72.877865 201.420002 
L 73.487812 191.970006 
L 74.097759 184.620004 
L 74.707706 178.740008 
L 75.317653 180.801824 
L 76.537548 149.08154 
L 77.147495 147.420002 
L 77.757442 135.900005 
L 78.367389 139.995001 
L 78.977336 148.055296 
L 79.587284 151.020001 
L 80.197231 149.693684 
L 80.807178 152.28 
L 81.417125 147.420002 
L 82.027072 149.874548 
L 83.246967 147.870004 
L 83.856914 143.964006 
L 84.466861 143.266156 
L 85.076808 137.02001 
L 85.686755 133.920009 
L 86.296702 138.854493 
L 86.90665 138.420003 
L 87.516597 133.136137 
L 89.346438 139.161179 
L 89.956385 140.94 
L 90.566333 138.420003 
L 91.786227 137.756849 
L 92.396174 139.389233 
L 93.006121 142.830009 
L 93.616069 142.415132 
L 94.226016 140.220002 
L 94.835963 143.401396 
L 95.44591 144.720008 
L 96.055857 147.660008 
L 96.665804 148.828702 
L 97.275752 146.730645 
L 97.885699 147.870004 
L 99.71554 155.46706 
L 100.325487 153.443084 
L 100.935435 155.774726 
L 102.765276 158.220001 
L 103.98517 157.102767 
L 104.595118 155.291186 
L 105.205065 152.28 
L 105.815012 154.324918 
L 106.424959 155.084525 
L 107.034906 151.020001 
L 107.644853 150.626257 
L 108.254801 152.570779 
L 108.864748 152.165455 
L 109.474695 152.900604 
L 110.084642 154.725883 
L 110.694589 154.306961 
L 111.914484 155.63409 
L 112.524431 154.170009 
L 114.354272 156.060008 
L 116.184114 154.896924 
L 116.794061 155.485828 
L 117.404008 155.115008 
L 118.013955 156.620004 
L 118.623902 155.322447 
L 119.23385 156.788679 
L 119.843797 156.420001 
L 120.453744 156.949412 
L 121.063691 156.587448 
L 121.673638 157.102767 
L 122.283585 158.46546 
L 122.893533 158.948098 
L 123.50348 156.900003 
L 124.113427 157.389231 
L 124.723374 157.046091 
L 126.553216 158.447368 
L 127.163163 155.745008 
L 127.77311 155.436497 
L 128.383057 156.677153 
L 128.993004 157.129094 
L 130.212899 159.503172 
L 130.822846 157.690589 
L 131.432793 156.647188 
L 132.652687 157.500003 
L 133.872582 159.73402 
L 134.482529 158.72001 
L 136.31237 157.830819 
L 137.532265 158.60231 
L 138.142212 156.988424 
L 138.752159 156.717393 
L 139.362106 157.754485 
L 139.972053 156.835385 
L 140.582 157.853902 
L 142.411842 157.059677 
L 143.021789 156.183937 
L 143.631736 154.09318 
L 144.241683 155.084525 
L 145.461578 155.820001 
L 146.071525 156.774339 
L 146.681472 155.351253 
L 147.291419 156.294427 
L 148.511314 156.983366 
L 149.121261 156.174553 
L 152.170997 155.066725 
L 152.780944 155.402611 
L 153.390891 154.6459 
L 154.000838 154.980005 
L 154.610785 154.237027 
L 155.83068 154.896924 
L 157.050574 154.495869 
L 157.660521 154.817267 
L 158.270468 155.648577 
L 160.10031 156.564005 
L 160.710257 157.361722 
L 163.150046 158.498715 
L 163.759993 157.320006 
L 164.36994 157.600895 
L 165.589834 159.103018 
L 168.63957 160.393174 
L 169.249517 161.100003 
L 169.859464 161.342893 
L 170.469412 162.035573 
L 172.9092 162.956847 
L 173.519147 163.62 
L 175.348989 162.97201 
L 175.958936 162.331365 
L 176.568883 162.125086 
L 177.17883 162.345852 
L 177.788778 162.141793 
L 178.398725 162.360001 
L 179.008672 161.322762 
L 180.228566 161.760993 
L 181.448461 160.555135 
L 182.058408 160.774842 
L 182.668355 160.18364 
L 183.278302 160.805111 
L 183.888249 160.220004 
L 185.108144 160.651419 
L 185.718091 160.470003 
L 186.328038 160.682185 
L 186.937985 160.112792 
L 187.547932 160.324625 
L 188.157879 160.148571 
L 189.377774 160.565454 
L 189.987721 160.010954 
L 190.597668 160.21801 
L 191.207615 160.799107 
L 191.817562 161.000203 
L 192.42751 160.826898 
L 193.037457 161.025888 
L 193.647404 160.485369 
L 194.867298 160.88087 
L 195.477245 159.621931 
L 196.087193 159.098478 
L 196.69714 159.300003 
L 197.307087 158.066455 
L 199.136928 157.614402 
L 199.746876 157.818146 
L 200.96677 158.91678 
L 202.796611 157.434552 
L 204.626453 158.026283 
L 205.2364 158.557508 
L 206.456294 158.267788 
L 207.676189 159.309477 
L 208.286136 158.833102 
L 208.896083 159.018269 
L 209.50603 158.874547 
L 210.725925 159.88867 
L 212.555766 160.416617 
L 213.165713 160.270642 
L 213.77566 160.44353 
L 214.385608 160.29867 
L 214.995555 160.785003 
L 215.605502 160.95361 
L 216.825396 160.664453 
L 217.435343 159.592134 
L 218.045291 159.145713 
L 220.485079 159.824829 
L 221.095026 159.688801 
L 221.704974 159.855065 
L 222.314921 159.720006 
L 222.924868 159.287194 
L 223.534815 159.750715 
L 224.144762 159.914118 
L 224.754709 160.371567 
L 227.804445 159.709664 
L 228.414392 160.157414 
L 229.02434 160.02685 
L 229.634287 160.470003 
L 230.244234 160.624529 
L 230.854181 159.925271 
L 231.464128 160.080675 
L 233.29397 159.70001 
L 233.903917 159.85395 
L 234.513864 159.45089 
L 235.123811 159.327693 
L 235.733758 159.757226 
L 236.953653 158.963486 
L 238.173547 159.268922 
L 238.783494 158.878073 
L 240.003389 159.718936 
L 240.613336 159.598724 
L 241.223283 159.212235 
L 241.83323 158.562262 
L 242.443177 158.447368 
L 243.053124 157.804616 
L 243.663072 158.220001 
L 244.273019 157.845002 
L 244.882966 157.995788 
L 245.492913 157.624146 
L 246.10286 158.034439 
L 246.712807 158.183017 
L 247.322755 158.5886 
L 249.152596 159.022708 
L 251.592385 158.580005 
L 252.202332 158.722331 
L 252.812279 158.613384 
L 253.422226 159.004165 
L 254.642121 159.282305 
L 255.252068 159.667059 
L 255.862015 159.310558 
L 256.471962 158.710919 
L 257.081909 158.849132 
L 257.691856 159.230327 
L 258.301804 159.122901 
L 260.131645 160.249305 
L 261.351539 160.509882 
L 262.571434 160.291708 
L 263.181381 160.420627 
L 263.791328 160.312503 
L 264.401275 159.969532 
L 265.011222 160.333051 
L 265.62117 160.2262 
L 266.231117 160.35334 
L 266.841064 159.781852 
L 267.451011 159.445775 
L 268.060958 159.574132 
L 268.670905 159.010248 
L 269.280853 158.909368 
L 269.8908 159.038186 
L 270.500747 158.252636 
L 271.720641 158.057848 
L 272.330588 157.734974 
L 272.940536 157.865381 
L 273.550483 157.545008 
L 274.16043 157.6752 
L 274.770377 157.357283 
L 275.380324 157.487262 
L 276.600219 157.301531 
L 277.210166 157.43053 
L 277.820113 157.117964 
L 279.040007 156.936525 
L 279.649954 156.628093 
L 280.259902 156.757182 
L 280.869849 156.451037 
L 281.479796 156.363269 
L 282.089743 155.844007 
L 283.309637 155.673417 
L 283.919585 155.803013 
L 284.529532 156.145432 
L 285.139479 156.060008 
L 285.749426 155.762706 
L 286.359373 155.255295 
L 286.96932 155.595427 
L 288.189215 155.85 
L 290.019056 155.601826 
L 290.629003 155.727693 
L 291.238951 155.231514 
L 291.848898 154.944599 
L 292.458845 154.865235 
L 293.068792 154.580877 
L 293.678739 154.707814 
L 294.288686 154.425416 
L 295.508581 155.084525 
L 296.118528 154.803388 
L 296.728475 154.321606 
L 297.338422 154.648806 
L 297.948369 154.773197 
L 298.558317 153.89428 
L 299.168264 154.220005 
L 299.778211 154.344542 
L 300.998105 153.797962 
L 301.608052 153.922624 
L 302.218 154.244022 
L 302.827947 154.170009 
L 303.437894 154.292733 
L 304.047841 154.218968 
L 304.657788 154.536289 
L 305.267735 154.65712 
L 306.48763 154.509241 
L 307.097577 154.629216 
L 307.707524 154.555721 
L 308.317471 154.290232 
L 308.927418 154.409847 
L 309.537366 154.720262 
L 310.147313 154.456373 
L 310.75726 154.574669 
L 311.367207 154.31247 
L 311.977154 154.43053 
L 312.587101 154.359007 
L 313.197049 154.099309 
L 315.02689 154.450695 
L 316.246784 154.309665 
L 316.856732 154.425416 
L 317.466679 154.725883 
L 318.076626 154.655216 
L 318.686573 154.769277 
L 319.29652 154.514896 
L 319.906467 154.628743 
L 320.516415 154.375939 
L 321.126362 154.672182 
L 321.736309 154.602652 
L 323.56615 154.938662 
L 324.786045 154.800009 
L 325.395992 154.19245 
L 326.005939 154.125219 
L 327.225833 154.348305 
L 329.055675 154.147873 
L 329.665622 153.728411 
L 330.275569 153.839588 
L 331.495464 154.411188 
L 332.105411 153.995003 
L 332.715358 153.929935 
L 333.325305 154.039355 
L 335.155147 153.845637 
L 335.765094 153.954257 
L 336.375041 154.234582 
L 336.984988 154.341827 
L 337.594935 154.620001 
L 338.204882 154.04172 
L 338.81483 153.978015 
L 339.424777 154.255141 
L 340.034724 154.191244 
L 340.644671 153.958121 
L 341.254618 153.387794 
L 341.864565 153.326251 
L 342.474513 153.433373 
L 344.304354 153.250098 
L 344.914301 153.022652 
L 345.524248 153.295779 
L 346.134196 153.235386 
L 346.744143 153.341054 
L 347.964037 152.890747 
L 348.573984 152.996472 
L 349.183931 152.937397 
L 349.793879 153.042569 
L 350.403826 152.98364 
L 351.62372 153.19242 
L 352.233667 153.45872 
L 352.843615 153.237177 
L 354.063509 153.443084 
L 354.673456 153.222994 
L 355.283403 153.325542 
L 355.89335 153.267142 
L 356.503298 153.529331 
L 357.723192 153.412408 
L 359.553033 153.71434 
L 360.162981 153.655986 
L 360.772928 153.913533 
L 361.382875 153.69751 
L 361.992822 153.796723 
L 362.602769 153.581827 
L 363.212716 153.680871 
L 365.042558 153.508895 
L 365.652505 153.141568 
L 366.262452 153.2405 
L 366.872399 153.49362 
L 367.482347 153.591436 
L 368.702241 154.09318 
L 369.312188 153.882474 
L 369.922135 153.825675 
L 370.532082 153.463643 
L 371.14203 153.407913 
L 371.751977 153.504513 
L 372.361924 153.752529 
L 373.581818 153.943206 
L 373.581818 153.943206 
" clip-path="url(#p3dac432d13)" style="fill: none; stroke: #d62728; stroke-width: 1.5; stroke-linecap: square"/>
   </g>
   <g id="line2d_18">
    <path d="M 69.218182 277.02 
L 69.828129 277.02 
L 70.438076 201.420002 
L 71.048023 201.420002 
L 71.65797 171.180004 
L 72.267918 176.219999 
L 72.877865 158.220001 
L 73.487812 163.62 
L 74.097759 167.82 
L 74.707706 156.060008 
L 75.317653 153.310919 
L 75.927601 157.320006 
L 76.537548 149.08154 
L 77.757442 166.140009 
L 78.367389 168.345007 
L 78.977336 161.396471 
L 79.587284 159.42 
L 80.197231 165.609482 
L 80.807178 152.28 
L 81.417125 151.020001 
L 82.027072 153.310919 
L 82.637019 152.115662 
L 83.246967 144.720008 
L 84.466861 149.08154 
L 85.076808 148.220005 
L 86.296702 141.46138 
L 86.90665 143.460009 
L 88.126544 142.35751 
L 88.736491 139.565456 
L 89.346438 139.161179 
L 89.956385 143.100004 
L 90.566333 144.720008 
L 91.17628 144.209195 
L 91.786227 145.714743 
L 93.006121 140.94 
L 94.226016 143.820002 
L 94.835963 139.885119 
L 95.44591 143.001827 
L 96.055857 144.300004 
L 96.665804 143.898262 
L 97.275752 145.122133 
L 97.885699 143.145009 
L 99.105593 142.452003 
L 99.71554 139.161179 
L 100.325487 140.358464 
L 100.935435 137.231324 
L 101.545382 138.420003 
L 102.155329 136.816368 
L 102.765276 137.970011 
L 103.375223 137.756849 
L 103.98517 134.944146 
L 105.815012 138.213454 
L 106.424959 138.013551 
L 107.034906 135.420003 
L 107.644853 134.088751 
L 108.254801 131.635388 
L 108.864748 130.401829 
L 109.474695 130.333437 
L 110.084642 129.155303 
L 110.694589 131.298263 
L 111.304536 131.220003 
L 111.914484 130.079157 
L 113.134378 132.033705 
L 114.354272 135.900005 
L 114.964219 136.762114 
L 116.184114 136.481541 
L 116.794061 137.303546 
L 117.404008 137.160004 
L 118.013955 136.086671 
L 118.623902 137.805369 
L 119.843797 137.520008 
L 120.453744 136.492942 
L 121.063691 137.247918 
L 121.673638 137.116554 
L 122.283585 136.129096 
L 123.50348 135.900005 
L 124.113427 134.958464 
L 124.723374 135.680873 
L 125.333321 135.574844 
L 125.943268 137.079581 
L 127.163163 138.420003 
L 127.77311 138.290114 
L 128.383057 139.70572 
L 128.993004 139.565456 
L 129.602951 138.672007 
L 130.212899 139.293276 
L 132.04274 138.904623 
L 133.262634 140.084154 
L 133.872582 138.537758 
L 134.482529 139.820006 
L 135.092476 139.691571 
L 136.31237 140.803792 
L 136.922317 140.670005 
L 137.532265 141.207618 
L 138.142212 141.072637 
L 138.752159 142.254793 
L 139.362106 142.11311 
L 141.191948 143.608237 
L 141.801895 144.720008 
L 142.411842 144.563803 
L 143.021789 143.790498 
L 144.851631 145.173604 
L 145.461578 145.020002 
L 146.681472 145.901251 
L 147.901366 145.592312 
L 148.511314 146.018477 
L 149.731208 147.988425 
L 150.341155 147.258807 
L 150.951102 147.660008 
L 151.561049 146.943537 
L 152.170997 146.789349 
L 152.780944 147.185222 
L 153.390891 145.943743 
L 154.000838 146.880001 
L 154.610785 146.194475 
L 155.220732 146.583386 
L 155.83068 145.909519 
L 156.440627 146.295006 
L 157.050574 147.196555 
L 157.660521 147.567948 
L 158.270468 146.905719 
L 158.880415 147.784873 
L 159.490363 147.637455 
L 160.10031 147.996007 
L 160.710257 147.348478 
L 161.320204 147.206851 
L 162.540098 147.910909 
L 163.759993 147.6277 
L 164.36994 147.007264 
L 164.979887 147.830137 
L 165.589834 147.216235 
L 166.199781 147.555005 
L 166.809729 146.950442 
L 168.029623 148.546383 
L 169.249517 149.187276 
L 169.859464 149.957359 
L 170.469412 150.265509 
L 171.079359 150.120007 
L 171.689306 149.528884 
L 172.299253 148.500004 
L 172.9092 148.367378 
L 173.519147 148.675821 
L 174.129095 148.543702 
L 174.739042 147.978624 
L 175.958936 147.726823 
L 176.568883 148.030174 
L 177.788778 147.782011 
L 179.618619 148.666155 
L 180.228566 149.367543 
L 182.058408 150.207099 
L 182.668355 150.076692 
L 183.278302 150.751921 
L 183.888249 151.020001 
L 184.498196 151.683166 
L 186.328038 151.281142 
L 187.547932 151.79539 
L 188.157879 151.662866 
L 189.987721 152.412975 
L 190.597668 153.036002 
L 191.207615 153.276718 
L 191.817562 152.766536 
L 192.42751 153.378624 
L 193.037457 153.24353 
L 193.647404 152.372195 
L 194.257351 151.87632 
L 195.477245 151.625769 
L 196.087193 150.778857 
L 196.69714 150.660008 
L 197.307087 150.900578 
L 197.917034 150.78227 
L 198.526981 151.020001 
L 199.746876 150.082336 
L 200.356823 148.920007 
L 200.96677 148.465172 
L 201.576717 148.708073 
L 202.186664 148.258364 
L 202.796611 148.500004 
L 203.406559 148.397377 
L 204.626453 149.550941 
L 205.2364 149.445003 
L 206.456294 149.904964 
L 207.676189 148.367378 
L 208.286136 147.938779 
L 208.896083 148.500004 
L 209.50603 148.401827 
L 210.115977 148.630354 
L 210.725925 148.207985 
L 211.335872 148.435386 
L 212.555766 148.24373 
L 213.165713 148.468112 
L 214.385608 148.278585 
L 216.215449 147.062982 
L 216.825396 146.353338 
L 218.045291 147.420002 
L 218.655238 147.639517 
L 219.875132 147.463553 
L 220.485079 146.769398 
L 221.704974 147.204869 
L 222.314921 147.120007 
L 222.924868 146.736999 
L 224.754709 146.491878 
L 225.364657 146.705603 
L 226.584551 146.544329 
L 227.194498 146.755395 
L 227.804445 147.254492 
L 231.464128 148.471694 
L 232.074075 148.951347 
L 232.684023 148.584313 
L 233.29397 148.500004 
L 234.513864 148.889118 
L 235.123811 149.358463 
L 235.733758 148.996645 
L 236.343706 149.462182 
L 236.953653 149.102617 
L 237.5636 149.018556 
L 238.173547 149.207058 
L 238.783494 149.123233 
L 240.613336 149.67958 
L 241.223283 149.59527 
L 242.443177 149.958947 
L 243.053124 149.874548 
L 243.663072 149.527318 
L 245.492913 150.064142 
L 246.10286 149.980824 
L 246.712807 150.156991 
L 247.322755 150.073932 
L 247.932702 149.477143 
L 248.542649 149.909493 
L 249.152596 149.828112 
L 249.762543 150.001823 
L 250.37249 149.666985 
L 250.982438 149.587227 
L 251.592385 149.760003 
L 252.202332 149.68047 
L 252.812279 149.851792 
L 253.422226 149.772484 
L 254.032173 149.942376 
L 255.252068 149.29059 
L 255.862015 149.214143 
L 256.471962 149.383641 
L 257.081909 149.796705 
L 258.301804 149.642517 
L 259.521698 149.973356 
L 260.131645 149.896436 
L 260.741592 149.580006 
L 261.351539 149.50481 
L 261.961487 149.191613 
L 262.571434 149.593592 
L 263.181381 149.282073 
L 266.231117 148.920007 
L 266.841064 149.08154 
L 267.451011 149.010186 
L 268.060958 149.401654 
L 268.670905 149.329759 
L 269.280853 149.717882 
L 269.8908 149.645457 
L 271.110694 149.957359 
L 272.330588 149.812814 
L 272.940536 150.192544 
L 273.550483 150.345008 
L 274.16043 150.272235 
L 274.770377 150.647222 
L 275.990271 150.501179 
L 277.210166 149.472637 
L 277.820113 149.844492 
L 278.43006 149.994422 
L 279.040007 149.924352 
L 280.869849 150.368282 
L 281.479796 150.297942 
L 282.089743 150.012007 
L 282.69969 149.512313 
L 283.919585 149.378076 
L 284.529532 149.097976 
L 285.139479 149.24536 
L 285.749426 149.179559 
L 286.359373 149.537648 
L 287.579268 149.826693 
L 288.189215 149.760003 
L 288.799162 149.903105 
L 289.409109 149.836584 
L 290.019056 150.186945 
L 290.629003 149.704622 
L 291.238951 149.639182 
L 292.458845 150.33336 
L 293.068792 150.472182 
L 293.678739 150.405368 
L 294.288686 150.134596 
L 297.338422 150.818409 
L 297.948369 149.947659 
L 299.778211 149.756679 
L 300.388158 150.091585 
L 300.998105 150.02788 
L 301.608052 149.766604 
L 302.218 149.704082 
L 303.437894 149.972736 
L 304.657788 149.847917 
L 305.877683 148.946999 
L 306.48763 149.08154 
L 307.097577 148.635345 
L 307.707524 148.577148 
L 308.317471 148.711611 
L 310.147313 148.538182 
L 310.75726 148.861822 
L 312.587101 148.689001 
L 313.197049 149.009037 
L 313.806996 148.951347 
L 314.416943 149.08154 
L 315.02689 148.836836 
L 317.466679 149.352357 
L 318.076626 149.294825 
L 318.686573 149.053174 
L 319.29652 149.364535 
L 319.906467 149.123886 
L 320.516415 149.067458 
L 322.346256 149.990197 
L 322.956203 149.38835 
L 323.56615 149.151103 
L 324.176098 149.275855 
L 324.786045 149.220001 
L 326.005939 149.82569 
L 326.615886 149.947659 
L 327.225833 149.712463 
L 327.835781 149.656238 
L 328.445728 149.777757 
L 329.055675 150.075746 
L 330.275569 149.962665 
L 330.885516 150.082336 
L 331.495464 150.026032 
L 332.105411 150.145005 
L 332.715358 150.088825 
L 333.325305 150.207099 
L 333.935252 149.977242 
L 334.545199 150.095235 
L 335.155147 149.866685 
L 336.375041 149.75713 
L 336.984988 150.046366 
L 338.81483 149.88231 
L 339.424777 149.657838 
L 340.034724 149.944055 
L 341.254618 150.174362 
L 341.864565 149.782511 
L 342.474513 149.560765 
L 343.08446 149.50801 
L 343.694407 149.790734 
L 344.304354 149.235931 
L 344.914301 149.518013 
L 345.524248 149.632344 
L 346.134196 149.08154 
L 346.744143 149.030531 
L 347.964037 149.259306 
L 348.573984 149.537648 
L 349.183931 149.486087 
L 349.793879 149.76274 
L 351.013773 149.985883 
L 351.62372 149.933803 
L 352.233667 150.044518 
L 353.453562 149.940776 
L 354.063509 150.050771 
L 355.283403 149.947659 
L 355.89335 150.217463 
L 356.503298 150.325936 
L 357.113245 149.954464 
L 357.723192 150.222532 
L 358.943086 150.120007 
L 359.553033 150.227557 
L 360.162981 150.018327 
L 360.772928 150.12564 
L 361.382875 150.075002 
L 361.992822 150.338925 
L 362.602769 150.444898 
L 363.212716 150.237391 
L 363.822664 150.34315 
L 364.432611 150.136702 
L 365.652505 150.347318 
L 366.872399 150.247 
L 367.482347 150.505719 
L 368.092294 150.455442 
L 368.702241 150.559026 
L 369.312188 150.355508 
L 369.922135 150.305839 
L 370.532082 150.409097 
L 371.14203 150.664356 
L 371.751977 150.462257 
L 372.971871 150.666497 
L 373.581818 150.465603 
L 373.581818 150.465603 
" clip-path="url(#p3dac432d13)" style="fill: none; stroke: #9467bd; stroke-width: 1.5; stroke-linecap: square"/>
   </g>
   <g id="line2d_19">
    <path d="M 69.218182 50.22 
L 70.438076 125.820004 
L 71.65797 125.820004 
L 72.267918 151.020001 
L 72.877865 147.420002 
L 73.487812 154.170009 
L 74.097759 167.82 
L 75.317653 173.929092 
L 76.537548 189.789234 
L 77.147495 179.819998 
L 77.757442 186.300006 
L 78.977336 188.078827 
L 79.587284 193.020003 
L 80.197231 189.483162 
L 81.417125 176.219999 
L 82.027072 170.492732 
L 82.637019 168.55044 
L 83.246967 169.920005 
L 83.856914 165.132003 
L 84.466861 166.527692 
L 85.076808 170.620007 
L 85.686755 169.019999 
L 86.296702 170.137245 
L 86.90665 168.660006 
L 87.516597 169.716779 
L 88.126544 168.345007 
L 88.736491 171.638185 
L 89.346438 172.514117 
L 91.17628 168.728116 
L 91.786227 169.588423 
L 92.396174 168.466153 
L 93.006121 165.510009 
L 93.616069 164.54195 
L 94.226016 167.22 
L 94.835963 166.257213 
L 95.44591 163.62 
L 96.055857 162.780005 
L 96.665804 163.62 
L 97.275752 162.815749 
L 97.885699 160.470003 
L 98.495646 161.305718 
L 99.105593 159.084002 
L 100.325487 160.712308 
L 100.935435 158.627556 
L 101.545382 155.220001 
L 102.155329 153.310919 
L 102.765276 155.520006 
L 103.375223 153.672636 
L 103.98517 154.495869 
L 104.595118 152.728482 
L 105.205065 153.54001 
L 105.815012 153.08558 
L 106.424959 153.865171 
L 108.254801 159.549236 
L 108.864748 160.18364 
L 109.474695 159.670754 
L 110.694589 160.88087 
L 111.304536 160.380005 
L 111.914484 162.02282 
L 112.524431 161.520006 
L 113.134378 162.066575 
L 113.744325 161.57676 
L 114.354272 157.068002 
L 116.184114 155.866155 
L 116.794061 156.44279 
L 118.623902 152.556585 
L 119.23385 152.234466 
L 119.843797 151.020001 
L 121.673638 152.757941 
L 122.283585 151.592728 
L 122.893533 151.303154 
L 123.50348 152.700003 
L 124.113427 151.573847 
L 125.333321 151.020001 
L 125.943268 148.339158 
L 126.553216 148.897905 
L 127.163163 148.657504 
L 127.77311 149.201448 
L 128.383057 148.191437 
L 128.993004 148.729094 
L 130.212899 146.778422 
L 130.822846 147.314119 
L 131.432793 148.573408 
L 132.652687 149.580006 
L 133.262634 148.642645 
L 134.482529 148.220005 
L 135.702423 149.187276 
L 136.31237 148.295685 
L 136.922317 148.095006 
L 137.532265 149.235931 
L 138.142212 149.693684 
L 138.752159 149.486087 
L 139.362106 150.585522 
L 139.972053 150.373847 
L 140.582 149.525088 
L 141.191948 150.596472 
L 141.801895 151.020001 
L 142.411842 150.186945 
L 143.021789 151.226561 
L 144.851631 152.431203 
L 145.461578 151.620001 
L 146.071525 151.416854 
L 146.681472 152.398128 
L 147.291419 152.192097 
L 148.511314 150.635269 
L 149.121261 151.592728 
L 149.731208 150.830531 
L 150.341155 151.208064 
L 150.951102 151.020001 
L 151.561049 150.278825 
L 152.780944 149.924352 
L 153.390891 150.294822 
L 154.000838 148.500004 
L 154.610785 149.4115 
L 156.440627 150.495006 
L 157.660521 149.121374 
L 158.270468 149.477143 
L 158.880415 148.295685 
L 160.10031 150.012007 
L 160.710257 149.851792 
L 161.320204 150.191057 
L 163.150046 149.719357 
L 164.36994 150.377971 
L 165.589834 150.069065 
L 166.199781 148.500004 
L 166.809729 149.298261 
L 169.249517 148.729094 
L 169.859464 146.769398 
L 170.469412 146.643959 
L 171.079359 146.97001 
L 171.689306 146.39752 
L 172.9092 146.156849 
L 173.519147 146.478146 
L 174.739042 146.240696 
L 175.348989 146.988001 
L 175.958936 147.297278 
L 176.568883 147.175939 
L 177.17883 146.631241 
L 177.788778 147.359665 
L 178.398725 147.240005 
L 179.008672 147.539346 
L 180.228566 147.301975 
L 180.838513 147.596089 
L 181.448461 148.295685 
L 182.058408 148.174843 
L 182.668355 147.651019 
L 183.278302 147.937022 
L 183.888249 147.820009 
L 184.498196 148.102114 
L 185.108144 148.777073 
L 186.328038 148.539173 
L 186.937985 149.201448 
L 187.547932 149.469234 
L 188.157879 148.96286 
L 189.987721 148.613975 
L 190.597668 148.87801 
L 191.207615 148.387171 
L 191.817562 148.649708 
L 192.42751 148.164828 
L 193.647404 147.946834 
L 194.257351 148.206408 
L 194.867298 147.733052 
L 196.087193 148.246794 
L 196.69714 148.140011 
L 197.917034 148.642645 
L 198.526981 149.24536 
L 199.136928 149.489163 
L 199.746876 149.379078 
L 200.356823 149.620009 
L 200.96677 150.207099 
L 201.576717 150.442025 
L 202.186664 149.984384 
L 202.796611 150.56182 
L 203.406559 150.107784 
L 205.2364 150.795 
L 205.846347 150.348005 
L 206.456294 150.573986 
L 207.676189 149.693684 
L 208.286136 149.589435 
L 209.50603 150.038187 
L 210.115977 149.607933 
L 210.725925 149.830309 
L 211.335872 149.727694 
L 211.945819 148.982563 
L 212.555766 148.884409 
L 213.165713 148.149124 
L 213.77566 148.69059 
L 214.385608 148.594902 
L 214.995555 148.815003 
L 215.605502 149.346972 
L 216.215449 148.937356 
L 217.435343 149.367543 
L 218.045291 149.271439 
L 218.655238 148.868784 
L 220.485079 149.501938 
L 221.095026 149.407208 
L 221.704974 149.915621 
L 222.314921 149.520007 
L 222.924868 149.725148 
L 223.534815 148.738118 
L 224.144762 148.351775 
L 224.754709 148.559068 
L 225.364657 147.882261 
L 225.974604 148.3828 
L 227.194498 148.209236 
L 227.804445 147.833798 
L 228.414392 146.595575 
L 229.634287 145.865461 
L 230.244234 145.789815 
L 230.854181 145.998954 
L 231.464128 145.640234 
L 232.074075 145.00209 
L 233.29397 145.420009 
L 233.903917 145.068713 
L 234.513864 145.55383 
L 235.733758 145.409792 
L 236.343706 145.613457 
L 237.5636 146.562241 
L 238.783494 146.955489 
L 239.393441 146.610006 
L 240.003389 146.805064 
L 240.613336 146.462554 
L 241.223283 146.389612 
L 241.83323 146.583386 
L 242.443177 147.04106 
L 243.053124 147.231196 
L 244.273019 147.082505 
L 244.882966 147.270523 
L 245.492913 147.717934 
L 246.712807 147.567948 
L 247.322755 146.977682 
L 247.932702 147.16286 
L 248.542649 146.577967 
L 249.152596 146.763247 
L 249.762543 146.438188 
L 250.982438 147.311641 
L 251.592385 147.492009 
L 252.202332 147.420002 
L 252.812279 147.849141 
L 254.642121 148.376074 
L 255.252068 148.055296 
L 255.862015 148.475378 
L 257.081909 148.328738 
L 257.691856 148.500004 
L 258.301804 148.427084 
L 258.911751 148.112309 
L 259.521698 148.524157 
L 260.131645 147.72956 
L 260.741592 147.660008 
L 261.351539 147.830137 
L 263.181381 146.912163 
L 263.791328 147.082505 
L 264.401275 147.4873 
L 266.841064 148.151084 
L 267.451011 147.850684 
L 268.060958 147.783307 
L 268.670905 148.177321 
L 269.280853 148.339158 
L 269.8908 148.270913 
L 270.500747 148.431488 
L 271.110694 148.8188 
L 272.330588 149.133777 
L 272.940536 149.06418 
L 273.550483 149.445003 
L 274.16043 149.374899 
L 275.380324 150.127972 
L 276.600219 149.985398 
L 277.210166 150.13579 
L 278.43006 149.994422 
L 279.040007 150.362616 
L 282.089743 151.092009 
L 282.69969 151.450774 
L 283.309637 151.163183 
L 285.749426 150.878431 
L 286.359373 151.020001 
L 286.96932 150.949616 
L 287.579268 151.300788 
L 288.189215 151.440005 
L 288.799162 151.159612 
L 289.409109 151.089621 
L 290.019056 150.395206 
L 290.629003 150.535392 
L 291.238951 150.881923 
L 291.848898 150.193772 
L 293.068792 150.472182 
L 294.288686 151.156221 
L 294.898634 150.680387 
L 296.118528 150.547085 
L 296.728475 150.683102 
L 297.338422 150.415202 
L 298.558317 150.685783 
L 299.778211 150.554565 
L 300.388158 150.887375 
L 300.998105 150.623159 
L 301.608052 150.756135 
L 302.218 151.085802 
L 303.437894 150.95455 
L 304.047841 151.281142 
L 305.267735 150.760213 
L 307.707524 151.277142 
L 308.317471 151.020001 
L 308.927418 150.956048 
L 309.537366 150.701014 
L 311.367207 151.653166 
L 312.587101 151.52401 
L 313.806996 151.77224 
L 314.416943 151.520258 
L 315.02689 151.082377 
L 316.246784 150.957941 
L 316.856732 151.081926 
L 317.466679 151.020001 
L 319.29652 151.387891 
L 319.906467 151.325831 
L 320.516415 151.447124 
L 321.126362 150.837391 
L 322.346256 151.080586 
L 323.56615 150.959721 
L 324.176098 151.260583 
L 324.786045 150.840005 
L 326.005939 150.721426 
L 326.615886 150.841278 
L 327.225833 150.603963 
L 327.835781 150.545654 
L 329.055675 150.783937 
L 329.665622 150.725617 
L 330.275569 150.491333 
L 330.885516 150.609776 
L 332.105411 150.495006 
L 332.715358 150.787216 
L 333.325305 150.903879 
L 333.935252 151.193802 
L 335.765094 151.53781 
L 336.375041 150.962605 
L 336.984988 150.56182 
L 338.204882 150.449866 
L 338.81483 150.564929 
L 339.424777 150.338925 
L 341.254618 150.68175 
L 341.864565 150.963754 
L 342.474513 150.907754 
L 343.08446 151.020001 
L 343.694407 150.628871 
L 344.304354 150.908498 
L 344.914301 150.853117 
L 345.524248 151.131021 
L 346.134196 151.075393 
L 346.744143 151.185792 
L 347.35409 150.964858 
L 347.964037 150.909962 
L 349.183931 151.129567 
L 349.793879 151.074672 
L 350.403826 151.34728 
L 351.013773 151.292148 
L 351.62372 151.400182 
L 352.233667 151.020001 
L 352.843615 151.29039 
L 353.453562 151.235855 
L 354.063509 151.020001 
L 355.283403 151.556172 
L 355.89335 151.341028 
L 356.503298 150.966615 
L 358.943086 151.390595 
L 359.553033 151.020001 
L 360.162981 150.96728 
L 360.772928 150.441304 
L 361.382875 150.705002 
L 361.992822 150.338925 
L 362.602769 150.601744 
L 363.212716 150.550442 
L 363.822664 150.81174 
L 364.432611 150.91609 
L 366.262452 150.761812 
L 366.872399 150.247 
L 368.092294 150.147506 
L 368.702241 149.637076 
L 369.312188 149.742113 
L 369.922135 149.999761 
L 370.532082 149.798192 
L 371.751977 149.701693 
L 372.361924 149.957359 
L 372.971871 150.060481 
L 373.581818 149.709602 
L 373.581818 149.709602 
" clip-path="url(#p3dac432d13)" style="fill: none; stroke: #8c564b; stroke-width: 1.5; stroke-linecap: square"/>
   </g>
   <g id="line2d_20">
    <path d="M 54 150.768005 
L 388.8 150.768005 
" clip-path="url(#p3dac432d13)" style="fill: none; stroke-dasharray: 5.55,2.4; stroke-dashoffset: 0; stroke: #000000; stroke-width: 1.5"/>
   </g>
   <g id="patch_3">
    <path d="M 54 288.36 
L 54 38.88 
" style="fill: none; stroke: #000000; stroke-width: 0.8; stroke-linejoin: miter; stroke-linecap: square"/>
   </g>
   <g id="patch_4">
    <path d="M 388.8 288.36 
L 388.8 38.88 
" style="fill: none; stroke: #000000; stroke-width: 0.8; stroke-linejoin: miter; stroke-linecap: square"/>
   </g>
   <g id="patch_5">
    <path d="M 54 288.36 
L 388.8 288.36 
" style="fill: none; stroke: #000000; stroke-width: 0.8; stroke-linejoin: miter; stroke-linecap: square"/>
   </g>
   <g id="patch_6">
    <path d="M 54 38.88 
L 388.8 38.88 
" style="fill: none; stroke: #000000; stroke-width: 0.8; stroke-linejoin: miter; stroke-linecap: square"/>
   </g>
   <g id="legend_1">
    <g id="patch_7">
     <path d="M 305.945312 134.94875 
L 381.8 134.94875 
Q 383.8 134.94875 383.8 132.94875 
L 383.8 45.88 
Q 383.8 43.88 381.8 43.88 
L 305.945312 43.88 
Q 303.945312 43.88 303.945312 45.88 
L 303.945312 132.94875 
Q 303.945312 134.94875 305.945312 134.94875 
z
" style="fill: #ffffff; opacity: 0.8; stroke: #cccccc; stroke-linejoin: miter"/>
    </g>
    <g id="line2d_21">
     <path d="M 307.945312 51.978437 
L 317.945312 51.978437 
L 327.945312 51.978437 
" style="fill: none; stroke: #1f77b4; stroke-width: 1.5; stroke-linecap: square"/>
    </g>
    <g id="text_16">
     <!-- P(die=1) -->
     <g transform="translate(335.945312 55.478437)scale(0.1 -0.1)">
      <defs>
       <path id="DejaVuSans-50" d="M 1259 4147 
L 1259 2394 
L 2053 2394 
Q 2494 2394 2734 2622 
Q 2975 2850 2975 3272 
Q 2975 3691 2734 3919 
Q 2494 4147 2053 4147 
L 1259 4147 
z
M 628 4666 
L 2053 4666 
Q 2838 4666 3239 4311 
Q 3641 3956 3641 3272 
Q 3641 2581 3239 2228 
Q 2838 1875 2053 1875 
L 1259 1875 
L 1259 0 
L 628 0 
L 628 4666 
z
" transform="scale(0.015625)"/>
       <path id="DejaVuSans-28" d="M 1984 4856 
Q 1566 4138 1362 3434 
Q 1159 2731 1159 2009 
Q 1159 1288 1364 580 
Q 1569 -128 1984 -844 
L 1484 -844 
Q 1016 -109 783 600 
Q 550 1309 550 2009 
Q 550 2706 781 3412 
Q 1013 4119 1484 4856 
L 1984 4856 
z
" transform="scale(0.015625)"/>
       <path id="DejaVuSans-3d" d="M 678 2906 
L 4684 2906 
L 4684 2381 
L 678 2381 
L 678 2906 
z
M 678 1631 
L 4684 1631 
L 4684 1100 
L 678 1100 
L 678 1631 
z
" transform="scale(0.015625)"/>
       <path id="DejaVuSans-29" d="M 513 4856 
L 1013 4856 
Q 1481 4119 1714 3412 
Q 1947 2706 1947 2009 
Q 1947 1309 1714 600 
Q 1481 -109 1013 -844 
L 513 -844 
Q 928 -128 1133 580 
Q 1338 1288 1338 2009 
Q 1338 2731 1133 3434 
Q 928 4138 513 4856 
z
" transform="scale(0.015625)"/>
      </defs>
      <use xlink:href="#DejaVuSans-50"/>
      <use xlink:href="#DejaVuSans-28" x="60.302734"/>
      <use xlink:href="#DejaVuSans-64" x="99.316406"/>
      <use xlink:href="#DejaVuSans-69" x="162.792969"/>
      <use xlink:href="#DejaVuSans-65" x="190.576172"/>
      <use xlink:href="#DejaVuSans-3d" x="252.099609"/>
      <use xlink:href="#DejaVuSans-31" x="335.888672"/>
      <use xlink:href="#DejaVuSans-29" x="399.511719"/>
     </g>
    </g>
    <g id="line2d_22">
     <path d="M 307.945312 66.656562 
L 317.945312 66.656562 
L 327.945312 66.656562 
" style="fill: none; stroke: #ff7f0e; stroke-width: 1.5; stroke-linecap: square"/>
    </g>
    <g id="text_17">
     <!-- P(die=2) -->
     <g transform="translate(335.945312 70.156562)scale(0.1 -0.1)">
      <use xlink:href="#DejaVuSans-50"/>
      <use xlink:href="#DejaVuSans-28" x="60.302734"/>
      <use xlink:href="#DejaVuSans-64" x="99.316406"/>
      <use xlink:href="#DejaVuSans-69" x="162.792969"/>
      <use xlink:href="#DejaVuSans-65" x="190.576172"/>
      <use xlink:href="#DejaVuSans-3d" x="252.099609"/>
      <use xlink:href="#DejaVuSans-32" x="335.888672"/>
      <use xlink:href="#DejaVuSans-29" x="399.511719"/>
     </g>
    </g>
    <g id="line2d_23">
     <path d="M 307.945312 81.334687 
L 317.945312 81.334687 
L 327.945312 81.334687 
" style="fill: none; stroke: #2ca02c; stroke-width: 1.5; stroke-linecap: square"/>
    </g>
    <g id="text_18">
     <!-- P(die=3) -->
     <g transform="translate(335.945312 84.834687)scale(0.1 -0.1)">
      <use xlink:href="#DejaVuSans-50"/>
      <use xlink:href="#DejaVuSans-28" x="60.302734"/>
      <use xlink:href="#DejaVuSans-64" x="99.316406"/>
      <use xlink:href="#DejaVuSans-69" x="162.792969"/>
      <use xlink:href="#DejaVuSans-65" x="190.576172"/>
      <use xlink:href="#DejaVuSans-3d" x="252.099609"/>
      <use xlink:href="#DejaVuSans-33" x="335.888672"/>
      <use xlink:href="#DejaVuSans-29" x="399.511719"/>
     </g>
    </g>
    <g id="line2d_24">
     <path d="M 307.945312 96.012812 
L 317.945312 96.012812 
L 327.945312 96.012812 
" style="fill: none; stroke: #d62728; stroke-width: 1.5; stroke-linecap: square"/>
    </g>
    <g id="text_19">
     <!-- P(die=4) -->
     <g transform="translate(335.945312 99.512812)scale(0.1 -0.1)">
      <use xlink:href="#DejaVuSans-50"/>
      <use xlink:href="#DejaVuSans-28" x="60.302734"/>
      <use xlink:href="#DejaVuSans-64" x="99.316406"/>
      <use xlink:href="#DejaVuSans-69" x="162.792969"/>
      <use xlink:href="#DejaVuSans-65" x="190.576172"/>
      <use xlink:href="#DejaVuSans-3d" x="252.099609"/>
      <use xlink:href="#DejaVuSans-34" x="335.888672"/>
      <use xlink:href="#DejaVuSans-29" x="399.511719"/>
     </g>
    </g>
    <g id="line2d_25">
     <path d="M 307.945312 110.690937 
L 317.945312 110.690937 
L 327.945312 110.690937 
" style="fill: none; stroke: #9467bd; stroke-width: 1.5; stroke-linecap: square"/>
    </g>
    <g id="text_20">
     <!-- P(die=5) -->
     <g transform="translate(335.945312 114.190937)scale(0.1 -0.1)">
      <use xlink:href="#DejaVuSans-50"/>
      <use xlink:href="#DejaVuSans-28" x="60.302734"/>
      <use xlink:href="#DejaVuSans-64" x="99.316406"/>
      <use xlink:href="#DejaVuSans-69" x="162.792969"/>
      <use xlink:href="#DejaVuSans-65" x="190.576172"/>
      <use xlink:href="#DejaVuSans-3d" x="252.099609"/>
      <use xlink:href="#DejaVuSans-35" x="335.888672"/>
      <use xlink:href="#DejaVuSans-29" x="399.511719"/>
     </g>
    </g>
    <g id="line2d_26">
     <path d="M 307.945312 125.369062 
L 317.945312 125.369062 
L 327.945312 125.369062 
" style="fill: none; stroke: #8c564b; stroke-width: 1.5; stroke-linecap: square"/>
    </g>
    <g id="text_21">
     <!-- P(die=6) -->
     <g transform="translate(335.945312 128.869062)scale(0.1 -0.1)">
      <defs>
       <path id="DejaVuSans-36" d="M 2113 2584 
Q 1688 2584 1439 2293 
Q 1191 2003 1191 1497 
Q 1191 994 1439 701 
Q 1688 409 2113 409 
Q 2538 409 2786 701 
Q 3034 994 3034 1497 
Q 3034 2003 2786 2293 
Q 2538 2584 2113 2584 
z
M 3366 4563 
L 3366 3988 
Q 3128 4100 2886 4159 
Q 2644 4219 2406 4219 
Q 1781 4219 1451 3797 
Q 1122 3375 1075 2522 
Q 1259 2794 1537 2939 
Q 1816 3084 2150 3084 
Q 2853 3084 3261 2657 
Q 3669 2231 3669 1497 
Q 3669 778 3244 343 
Q 2819 -91 2113 -91 
Q 1303 -91 875 529 
Q 447 1150 447 2328 
Q 447 3434 972 4092 
Q 1497 4750 2381 4750 
Q 2619 4750 2861 4703 
Q 3103 4656 3366 4563 
z
" transform="scale(0.015625)"/>
      </defs>
      <use xlink:href="#DejaVuSans-50"/>
      <use xlink:href="#DejaVuSans-28" x="60.302734"/>
      <use xlink:href="#DejaVuSans-64" x="99.316406"/>
      <use xlink:href="#DejaVuSans-69" x="162.792969"/>
      <use xlink:href="#DejaVuSans-65" x="190.576172"/>
      <use xlink:href="#DejaVuSans-3d" x="252.099609"/>
      <use xlink:href="#DejaVuSans-36" x="335.888672"/>
      <use xlink:href="#DejaVuSans-29" x="399.511719"/>
     </g>
    </g>
   </g>
  </g>
 </g>
 <defs>
  <clipPath id="p3dac432d13">
   <rect x="54" y="38.88" width="334.8" height="249.48"/>
  </clipPath>
 </defs>
</svg>
